<svg xmlns="http://www.w3.org/2000/svg" xmlns:xlink="http://www.w3.org/1999/xlink" xmlns:lucid="lucid" width="1440" height="860"><g transform="translate(-4.800708591674052 -4.800708591674052)" lucid:page-tab-id="YY0Z9IrwJu75"><path d="M0 0h1449.6v1025.5H0z" fill="#fff"/><path d="M864.8 189.8c0-2.76 2.24-5 5-5h150c2.76 0 5 2.24 5 5v110c0 2.76-2.24 5-5 5h-150c-2.76 0-5-2.24-5-5z" stroke="#000" stroke-width="2" fill="#fff"/><use xlink:href="#a" transform="matrix(1,0,0,1,872.800708591674,192.80070859167404) translate(50.5 44.8)"/><use xlink:href="#b" transform="matrix(1,0,0,1,872.800708591674,192.80070859167404) translate(34.574999999999996 66.4)"/><path d="M464.8 229.8c0-2.76 2.24-5 5-5h150c2.76 0 5 2.24 5 5v110c0 2.76-2.24 5-5 5h-150c-2.76 0-5-2.24-5-5z" stroke="#000" stroke-width="2" fill="#666"/><use xlink:href="#c" transform="matrix(1,0,0,1,472.80070859167404,232.8007085917128) translate(10.099999999999994 55.6)"/><use xlink:href="#d" transform="matrix(1,0,0,1,472.80070859167404,232.8007085917128) translate(77.95 55.6)"/><path d="M626.8 284.63l218.75-36.76" stroke="#000" stroke-width="2" fill="none"/><path d="M626.98 285.62l-1.18.2v-2.03l.85-.16z"/><path d="M860.6 245.34l-13.3 6.93-1.53-9.14zM864.8 576.32c0-2.76 1.94-6.13 4.32-7.5l71.36-41.5c2.4-1.4 6.26-1.4 8.64 0l71.36 41.5c2.4 1.37 4.32 4.74 4.32 7.5v63.48c0 2.76-2.24 5-5 5h-150c-2.76 0-5-2.24-5-5z" stroke="#000" stroke-width="2" fill="#fff"/><use xlink:href="#e" transform="matrix(1,0,0,1,864.800708591674,524.800708591674) translate(29.074999999999996 63.6)"/><path d="M898 548.46l-1.2 1.6-70.1-52.58h3.34zm-96.76-72.58h-3.33L624 345.43l1.2-1.6z"/><path d="M625.2 343.85l-1.2 1.6-1.07-.8 1.7-1.23zM898.87 550.35l-21.56-2.37.23-1.98 18.2 2-7.02-16.92 1.86-.76z"/><use xlink:href="#f" transform="matrix(1,0,0,1,717.5967918523558,475.87902103718494) translate(0.009999999999990905 14.4)"/><use xlink:href="#g" transform="matrix(1,0,0,1,717.5967918523558,475.87902103718494) translate(80.86 14.4)"/><use xlink:href="#h" transform="matrix(1,0,0,1,717.5967918523558,475.87902103718494) translate(152.76 14.4)"/><path d="M605.2 530.76l-1.9.6-35.4-110.27h2.1zM556.15 377.9h-2.1l-9.9-30.84 1.9-.6z"/><path d="M546.07 346.47l-1.9.6-.42-1.27h2.1zM609.6 511.65l-4.8 21.15-16.22-14.4 1.33-1.5 13.7 12.16 4.06-17.85z"/><use xlink:href="#i" transform="matrix(1,0,0,1,515.4270645257523,377.88951791959) translate(29.655000000000012 14.4)"/><use xlink:href="#j" transform="matrix(1,0,0,1,515.4270645257523,377.88951791959) translate(0.005000000000002558 36)"/><use xlink:href="#k" transform="matrix(1,0,0,1,515.4270645257523,377.88951791959) translate(73.20500000000001 36)"/><path d="M264.8 45.8h160v40h-160z" stroke="#000" fill="#fff"/><use xlink:href="#l" transform="matrix(1,0,0,1,269.80070859167404,50.80070859171282) translate(36.55 18.6)"/><path d="M494.34 222.4l-1.35 1.46-63.13-58h2.96zm-85-78.15h-2.97l-60.9-55.98 1.35-1.48z"/><path d="M495.88 223.8H493l1.32-1.43zM366.02 90.8l-.42 1.96-17.9-3.8 5.3 17.53-1.93.56-6.27-20.76z"/><use xlink:href="#m" transform="matrix(1,0,0,1,391.15070859167406,144.2507085917128) translate(0.004999999999999005 14.4)"/><path d="M485.8 763.56l-.66-.74 8.2-7.45h1.48zM604.78 655.5l-62.4 56.67h-1.47l63.2-57.4z"/><path d="M604.76 655.52l-.65-.72h1.44zM486.25 762.48L505 758.6l.22 1-20.42 4.2 2.6-8.43h1.05z"/><use xlink:href="#n" transform="matrix(1,0,0,1,445.3359560476853,712.1709838191131) translate(0 14.4)"/><use xlink:href="#o" transform="matrix(1,0,0,1,445.3359560476853,712.1709838191131) translate(0 36)"/><path d="M404.8 764.3h160v40h-160z" stroke="#000" fill="#fff"/><use xlink:href="#p" transform="matrix(1,0,0,1,409.80070859167404,769.3007085916354) translate(21.4 18.6)"/><path d="M630.7 764.3h160v40h-160z" stroke="#000" fill="#fff"/><use xlink:href="#p" transform="matrix(1,0,0,1,635.7007085916737,769.3007085916354) translate(21.4 18.6)"/><path d="M710.43 762.8l-.72.7-6.74-6.95h1.4zm-48.05-49.45h-1.4l-56.2-57.84.73-.7z"/><path d="M605.52 654.82l-.72.7-.7-.72h1.4zM710.7 763.8l-20.1-5.47.25-.97 18.48 5.03-1.4-5.85h1.02z"/><use xlink:href="#q" transform="matrix(1,0,0,1,613.1166283348778,713.34598953603) translate(0 14.4)"/><use xlink:href="#r" transform="matrix(1,0,0,1,613.1166283348778,713.34598953603) translate(0 36)"/><path d="M864.8 50.8c0-2.76 2.24-5 5-5h150c2.76 0 5 2.24 5 5v110c0 2.76-2.24 5-5 5h-150c-2.76 0-5-2.24-5-5z" stroke="#000" stroke-width="2" fill="#666"/><use xlink:href="#c" transform="matrix(1,0,0,1,872.800708591674,53.80070859171282) translate(0.6499999999999915 44.8)"/><use xlink:href="#s" transform="matrix(1,0,0,1,872.800708591674,53.80070859171282) translate(68.5 44.8)"/><use xlink:href="#t" transform="matrix(1,0,0,1,872.800708591674,53.80070859171282) translate(41.025 66.4)"/><path d="M1224.8 709.8c0-2.76 2.24-5 5-5h150c2.76 0 5 2.24 5 5v30c0 2.76-2.24 5-5 5h-150c-2.76 0-5-2.24-5-5z" stroke="#000" stroke-opacity="0" stroke-width="2" fill="#fff" fill-opacity="0"/><use xlink:href="#u" transform="matrix(1,0,0,1,1229.800708591674,709.800708591675) translate(0 22.799999999999997)"/><path d="M1224.8 372.47c0-2.76 2.24-5 5-5h150c2.76 0 5 2.24 5 5v110c0 2.76-2.24 5-5 5h-150c-2.76 0-5-2.24-5-5z" stroke="#000" stroke-width="2" fill="#b2b2b2"/><use xlink:href="#v" transform="matrix(1,0,0,1,1232.800708591674,375.46737525834067) translate(51 44.8)"/><use xlink:href="#w" transform="matrix(1,0,0,1,1232.800708591674,375.46737525834067) translate(38.525 66.4)"/><path d="M1224.8 229.8c0-2.76 2.24-5 5-5h150c2.76 0 5 2.24 5 5v110c0 2.76-2.24 5-5 5h-150c-2.76 0-5-2.24-5-5z" stroke="#000" stroke-width="2" fill="#666"/><use xlink:href="#x" transform="matrix(1,0,0,1,1232.800708591674,232.80070859167404) translate(27.049999999999997 55.6)"/><use xlink:href="#y" transform="matrix(1,0,0,1,1232.800708591674,232.80070859167404) translate(72.05 55.6)"/><path d="M1224.8 29.8c0-2.76 2.24-5 5-5h190c2.76 0 5 2.24 5 5v50c0 2.76-2.24 5-5 5h-190c-2.76 0-5-2.24-5-5z" stroke="#000" stroke-opacity="0" stroke-width="2" fill="#fff" fill-opacity="0"/><use xlink:href="#z" transform="matrix(1,0,0,1,1229.800708591674,29.800708591674052) translate(0 28.6)"/><use xlink:href="#A" transform="matrix(1,0,0,1,1229.800708591674,29.800708591674052) translate(72.80000000000001 28.6)"/><use xlink:href="#B" transform="matrix(1,0,0,1,1229.800708591674,29.800708591674052) translate(143.70000000000002 28.6)"/><path d="M1224.8 87.13c0-2.76 2.24-5 5-5h150c2.76 0 5 2.24 5 5v110c0 2.77-2.24 5-5 5h-150c-2.76 0-5-2.23-5-5z" stroke="#000" stroke-width="2" fill="#fff"/><use xlink:href="#C" transform="matrix(1,0,0,1,1232.800708591674,90.13404192500741) translate(33.599999999999994 44.8)"/><use xlink:href="#D" transform="matrix(1,0,0,1,1232.800708591674,90.13404192500741) translate(5.099999999999994 66.4)"/><use xlink:href="#E" transform="matrix(1,0,0,1,1232.800708591674,90.13404192500741) translate(92 66.4)"/><path d="M1225.8 684.8h117.18M1225.83 684.8h-1.03M1325.62 694.98l17.22-10.18-17.22-10.18" stroke="#000" stroke-width="2" fill="none"/><path d="M1224.8 561.65c0-2.76 1.94-6.12 4.32-7.5l71.36-41.5c2.4-1.4 6.26-1.4 8.64 0l71.36 41.5c2.4 1.38 4.32 4.74 4.32 7.5v63.48c0 2.77-2.24 5-5 5h-150c-2.76 0-5-2.23-5-5z" stroke="#000" stroke-width="2" fill="#fff"/><use xlink:href="#F" transform="matrix(1,0,0,1,1224.800708591674,510.13404192500735) translate(60.025 52.8)"/><use xlink:href="#G" transform="matrix(1,0,0,1,1224.800708591674,510.13404192500735) translate(56.5 74.4)"/><path d="M626.95 228.95l-.9-1.78L686.5 196h4.37zm235.7-121.43l-129.84 66.9h-4.35l133.28-68.68z"/><path d="M626.98 228.94l-1.2.62-.3-1.74-.18-.27.76-.4zM863.8 105.8l-11.54 18.37-1.7-1.07 9.75-15.5-18.27-1.07.12-2z"/><use xlink:href="#H" transform="matrix(1,0,0,1,627.2185200837212,174.4094660014077) translate(0.0049999999999954525 14.4)"/><use xlink:href="#I" transform="matrix(1,0,0,1,627.2185200837212,174.4094660014077) translate(127.905 14.4)"/><path d="M1224.8 809.8c0-2.76 2.24-5 5-5h150c2.76 0 5 2.24 5 5v30c0 2.76-2.24 5-5 5h-150c-2.76 0-5-2.24-5-5z" stroke="#000" stroke-opacity="0" stroke-width="2" fill="#fff" fill-opacity="0"/><use xlink:href="#J" transform="matrix(1,0,0,1,1229.800708591674,809.8007085916718) translate(0 22.799999999999997)"/><path d="M1225.8 784.8h100.5M1225.83 784.8h-1.03" stroke="#000" stroke-width="2" fill="none"/><path d="M1341.56 784.8l-14.26 4.64v-9.27z" stroke="#000" stroke-width="2" fill="#fff"/><path d="M464.8 45.8h160v40h-160z" stroke="#000" fill="#fff"/><use xlink:href="#K" transform="matrix(1,0,0,1,469.80070859167404,50.80070859171282) translate(41 18.6)"/><path d="M545.8 222.8h-2v-46.15h2zm0-89.35h-2V88.12h2z"/><path d="M545.8 223.8h-2v-1.02h2zM555.84 104.97l-1.72 1.02-9.32-15.77-9.32 15.76-1.72-1.03L544.8 86.3z"/><use xlink:href="#L" transform="matrix(1,0,0,1,500.325708591674,133.4507085917128) translate(0.005000000000002558 14.4)"/><use xlink:href="#M" transform="matrix(1,0,0,1,500.325708591674,133.4507085917128) translate(4.005000000000003 36)"/><path d="M187.87 464.65l-1.1-1.68 83.1-53.8h3.68zM463.5 286.18l-156.6 101.4h-3.67l159.2-103.08z"/><path d="M463.8 286l-.32.2-1.08-1.68 1.4-.9zM197.26 446.28l-8.16 16.4 18.3-.76.07 2-21.67.88 9.67-19.42z"/><use xlink:href="#N" transform="matrix(1,0,0,1,205.91845508347072,387.5737504315322) translate(0 14.4)"/><use xlink:href="#O" transform="matrix(1,0,0,1,205.91845508347072,387.5737504315322) translate(34 14.4)"/><use xlink:href="#P" transform="matrix(1,0,0,1,205.91845508347072,387.5737504315322) translate(91.95 14.4)"/><use xlink:href="#k" transform="matrix(1,0,0,1,205.91845508347072,387.5737504315322) translate(144.95 14.4)"/><path d="M24.8 50.8c0-2.76 2.24-5 5-5h150c2.76 0 5 2.24 5 5v110c0 2.76-2.24 5-5 5h-150c-2.76 0-5-2.24-5-5z" stroke="#000" stroke-width="2" fill="#b2b2b2"/><use xlink:href="#Q" transform="matrix(1,0,0,1,32.80070859167405,53.80070859171282) translate(0.6499999999999915 44.8)"/><use xlink:href="#R" transform="matrix(1,0,0,1,32.80070859167405,53.80070859171282) translate(68.5 44.8)"/><use xlink:href="#S" transform="matrix(1,0,0,1,32.80070859167405,53.80070859171282) translate(42.025 66.4)"/><path d="M24.8 229.8c0-2.76 2.24-5 5-5h150c2.76 0 5 2.24 5 5v110c0 2.76-2.24 5-5 5h-150c-2.76 0-5-2.24-5-5z" stroke="#000" stroke-width="2" fill="#b2b2b2"/><use xlink:href="#T" transform="matrix(1,0,0,1,32.80070859167405,232.8007085917128) translate(44.025 44.8)"/><use xlink:href="#U" transform="matrix(1,0,0,1,32.80070859167405,232.8007085917128) translate(13.649999999999999 66.4)"/><path d="M463.5 283.42l-1.08 1.68-159.1-102.44h3.7zM273.47 161.06h-3.7l-82.98-53.43 1.07-1.7z"/><path d="M463.8 283.6v2.4l-1.4-.9 1.08-1.7zM207.48 106.62l-.08 2-18.3-.7 8.2 16.38-1.78.9-9.72-19.4z"/><use xlink:href="#N" transform="matrix(1,0,0,1,228.91845508347072,161.05862809542361) translate(0 14.4)"/><use xlink:href="#V" transform="matrix(1,0,0,1,228.91845508347072,161.05862809542361) translate(34 14.4)"/><use xlink:href="#k" transform="matrix(1,0,0,1,228.91845508347072,161.05862809542361) translate(98.95 14.4)"/><path d="M24.8 409.8c0-2.76 2.24-5 5-5h150c2.76 0 5 2.24 5 5v110c0 2.76-2.24 5-5 5h-150c-2.76 0-5-2.24-5-5z" stroke="#000" stroke-width="2" fill="#b2b2b2"/><g><use xlink:href="#W" transform="matrix(1,0,0,1,32.80070859167405,412.80070859167404) translate(16.025 55.6)"/><use xlink:href="#X" transform="matrix(1,0,0,1,32.80070859167405,412.80070859167404) translate(76.975 55.6)"/></g><path d="M220.67 285.8h-33.05v-2h33.05zm242.13 0h-69.38v-2h69.38z"/><path d="M463.8 285.8h-1.02v-2h1.02zM205.5 275.48l-15.77 9.32 15.76 9.32-1.03 1.72-18.67-11.04 18.67-11.04z"/><g><use xlink:href="#N" transform="matrix(1,0,0,1,220.66578250160558,274.0007085917128) translate(0 14.4)"/><use xlink:href="#Y" transform="matrix(1,0,0,1,220.66578250160558,274.0007085917128) translate(34 14.4)"/><use xlink:href="#k" transform="matrix(1,0,0,1,220.66578250160558,274.0007085917128) translate(152.75 14.4)"/></g><path d="M426.62 531.8l-1.68-1.07 33.6-52.36h2.37zm88.8-138.37l-26.78 41.74h-2.38l29.17-45.45zm29.68-46.25l-19.7 30.7h-2.38l20.4-31.78z"/><path d="M545.1 347.2l-1.7-1.08.2-.32h2.4zM427.6 511.2l-.68 18.3 16.36-8.24.9 1.8-19.38 9.74.8-21.68z"/><g><use xlink:href="#Z" transform="matrix(1,0,0,1,398.6372750605284,435.1749758444147) translate(57.455 14.4)"/><use xlink:href="#aa" transform="matrix(1,0,0,1,398.6372750605284,435.1749758444147) translate(0.0049999999999954525 36)"/><use xlink:href="#I" transform="matrix(1,0,0,1,398.6372750605284,435.1749758444147) translate(112.905 36)"/></g><path d="M344.8 538.8c0-2.76 2.24-5 5-5h150c2.76 0 5 2.24 5 5v110c0 2.76-2.24 5-5 5h-150c-2.76 0-5-2.24-5-5z" stroke="#000" stroke-width="2" fill="#fff"/><g><use xlink:href="#Z" transform="matrix(1,0,0,1,352.80070859167404,541.8007085917127) translate(54.5 44.8)"/><use xlink:href="#ab" transform="matrix(1,0,0,1,352.80070859167404,541.8007085917127) translate(32.55 66.4)"/></g><path d="M524.8 538.8c0-2.76 2.24-5 5-5h150c2.76 0 5 2.24 5 5v110c0 2.76-2.24 5-5 5h-150c-2.76 0-5-2.24-5-5z" stroke="#000" stroke-width="2" fill="#fff"/><g><use xlink:href="#ac" transform="matrix(1,0,0,1,532.800708591674,541.8007085917127) translate(52.55 44.8)"/><use xlink:href="#ad" transform="matrix(1,0,0,1,532.800708591674,541.8007085917127) translate(15.599999999999994 66.4)"/></g><path d="M186.83 583.4l-1.3-1.54 87.05-73.65h3.1zm280.1-237.03L301.22 486.6h-3.1l167.55-141.76z"/><path d="M466.23 344.7l1.95.62-1.25 1.06-1.3-1.52.45-.38zM193.8 563.97l-6 17.3 18.05-3.07.34 1.97-21.4 3.63 7.12-20.5z"/><g><use xlink:href="#ae" transform="matrix(1,0,0,1,232.92085878745596,486.61032814715855) translate(0.010000000000005116 14.4)"/><use xlink:href="#k" transform="matrix(1,0,0,1,232.92085878745596,486.61032814715855) translate(87.96000000000001 14.4)"/></g><path d="M104.8 589.8c0-2.76 2.24-5 5-5h150c2.76 0 5 2.24 5 5v110c0 2.76-2.24 5-5 5h-150c-2.76 0-5-2.24-5-5z" stroke="#000" stroke-width="2" fill="#fff"/><g><use xlink:href="#af" transform="matrix(1,0,0,1,112.80070859167404,592.800708591675) translate(54.5 44.8)"/><use xlink:href="#ag" transform="matrix(1,0,0,1,112.80070859167404,592.800708591675) translate(31.049999999999997 66.4)"/></g><path d="M864.8 333.47c0-2.76 2.24-5 5-5h150c2.76 0 5 2.24 5 5v110c0 2.76-2.24 5-5 5h-150c-2.76 0-5-2.24-5-5z" stroke="#000" stroke-width="2" fill="#666"/><g><use xlink:href="#ah" transform="matrix(1,0,0,1,872.800708591674,336.46737525837943) translate(46.075 55.6)"/></g><path d="M862.53 386.82l-.8 1.84-49.1-21.4h5.02zm-94.47-41.15h-5L626.3 286.12l.8-1.84z"/><path d="M627.14 284.3l-.8 1.83-.54-.24v-2.2zM863.8 388.47l-21.53 2.66-.24-1.98 18.17-2.25-10.73-14.84 1.62-1.17z"/><g><use xlink:href="#N" transform="matrix(1,0,0,1,735.925092462141,345.6741797173643) translate(0.010000000000005116 14.4)"/><use xlink:href="#ai" transform="matrix(1,0,0,1,735.925092462141,345.6741797173643) translate(34.010000000000005 14.4)"/><use xlink:href="#k" transform="matrix(1,0,0,1,735.925092462141,345.6741797173643) translate(88.86 14.4)"/></g><defs><path d="M135-143c-3-34-86-38-87 0 15 53 115 12 119 90S17 21 10-45l28-5c4 36 97 45 98 0-10-56-113-15-118-90-4-57 82-63 122-42 12 7 21 19 24 35" id="aj"/><path d="M100-194c62-1 85 37 85 99 1 63-27 99-86 99S16-35 15-95c0-66 28-99 85-99zM99-20c44 1 53-31 53-75 0-43-8-75-51-75s-53 32-53 75 10 74 51 75" id="ak"/><path d="M141-36C126-15 110 5 73 4 37 3 15-17 15-53c-1-64 63-63 125-63 3-35-9-54-41-54-24 1-41 7-42 31l-33-3c5-37 33-52 76-52 45 0 72 20 72 64v82c-1 20 7 32 28 27v20c-31 9-61-2-59-35zM48-53c0 20 12 33 32 33 41-3 63-29 60-74-43 2-92-5-92 41" id="al"/><path d="M33-154v-36h34v36H33zM33 0v-36h34V0H33" id="am"/><g id="a"><use transform="matrix(0.05,0,0,0.05,0,0)" xlink:href="#aj"/><use transform="matrix(0.05,0,0,0.05,9,0)" xlink:href="#ak"/><use transform="matrix(0.05,0,0,0.05,19,0)" xlink:href="#aj"/><use transform="matrix(0.05,0,0,0.05,28,0)" xlink:href="#al"/><use transform="matrix(0.05,0,0,0.05,38,0)" xlink:href="#am"/></g><path d="M185-189c-5-48-123-54-124 2 14 75 158 14 163 119 3 78-121 87-175 55-17-10-28-26-33-46l33-7c5 56 141 63 141-1 0-78-155-14-162-118-5-82 145-84 179-34 5 7 8 16 11 25" id="an"/><path d="M210-169c-67 3-38 105-44 169h-31v-121c0-29-5-50-35-48C34-165 62-65 56 0H25l-1-190h30c1 10-1 24 2 32 10-44 99-50 107 0 11-21 27-35 58-36 85-2 47 119 55 194h-31v-121c0-29-5-49-35-48" id="ao"/><path d="M115-194c55 1 70 41 70 98S169 2 115 4C84 4 66-9 55-30l1 105H24l-1-265h31l2 30c10-21 28-34 59-34zm-8 174c40 0 45-34 45-75s-6-73-45-74c-42 0-51 32-51 76 0 43 10 73 51 73" id="ap"/><path d="M24 0v-261h32V0H24" id="aq"/><path d="M24-231v-30h32v30H24zM24 0v-190h32V0H24" id="ar"/><path d="M117-194c89-4 53 116 60 194h-32v-121c0-31-8-49-39-48C34-167 62-67 57 0H25l-1-190h30c1 10-1 24 2 32 11-22 29-35 61-36" id="as"/><path d="M177-190C167-65 218 103 67 71c-23-6-38-20-44-43l32-5c15 47 100 32 89-28v-30C133-14 115 1 83 1 29 1 15-40 15-95c0-56 16-97 71-98 29-1 48 16 59 35 1-10 0-23 2-32h30zM94-22c36 0 50-32 50-73 0-42-14-75-50-75-39 0-46 34-46 75s6 73 46 73" id="at"/><g id="b"><use transform="matrix(0.05,0,0,0.05,0,0)" xlink:href="#an"/><use transform="matrix(0.05,0,0,0.05,12,0)" xlink:href="#al"/><use transform="matrix(0.05,0,0,0.05,22,0)" xlink:href="#ao"/><use transform="matrix(0.05,0,0,0.05,36.95,0)" xlink:href="#ap"/><use transform="matrix(0.05,0,0,0.05,46.95,0)" xlink:href="#aq"/><use transform="matrix(0.05,0,0,0.05,50.900000000000006,0)" xlink:href="#ar"/><use transform="matrix(0.05,0,0,0.05,54.85,0)" xlink:href="#as"/><use transform="matrix(0.05,0,0,0.05,64.85000000000001,0)" xlink:href="#at"/></g><path fill="#fff" d="M185-189c-5-48-123-54-124 2 14 75 158 14 163 119 3 78-121 87-175 55-17-10-28-26-33-46l33-7c5 56 141 63 141-1 0-78-155-14-162-118-5-82 145-84 179-34 5 7 8 16 11 25" id="au"/><path fill="#fff" d="M100-194c63 0 86 42 84 106H49c0 40 14 67 53 68 26 1 43-12 49-29l28 8c-11 28-37 45-77 45C44 4 14-33 15-96c1-61 26-98 85-98zm52 81c6-60-76-77-97-28-3 7-6 17-6 28h103" id="av"/><path fill="#fff" d="M24-231v-30h32v30H24zM24 0v-190h32V0H24" id="aw"/><path fill="#fff" d="M135-143c-3-34-86-38-87 0 15 53 115 12 119 90S17 21 10-45l28-5c4 36 97 45 98 0-10-56-113-15-118-90-4-57 82-63 122-42 12 7 21 19 24 35" id="ax"/><path fill="#fff" d="M210-169c-67 3-38 105-44 169h-31v-121c0-29-5-50-35-48C34-165 62-65 56 0H25l-1-190h30c1 10-1 24 2 32 10-44 99-50 107 0 11-21 27-35 58-36 85-2 47 119 55 194h-31v-121c0-29-5-49-35-48" id="ay"/><path fill="#fff" d="M96-169c-40 0-48 33-48 73s9 75 48 75c24 0 41-14 43-38l32 2c-6 37-31 61-74 61-59 0-76-41-82-99-10-93 101-131 147-64 4 7 5 14 7 22l-32 3c-4-21-16-35-41-35" id="az"/><g id="c"><use transform="matrix(0.05,0,0,0.05,0,0)" xlink:href="#au"/><use transform="matrix(0.05,0,0,0.05,12,0)" xlink:href="#av"/><use transform="matrix(0.05,0,0,0.05,22,0)" xlink:href="#aw"/><use transform="matrix(0.05,0,0,0.05,25.950000000000003,0)" xlink:href="#ax"/><use transform="matrix(0.05,0,0,0.05,34.95,0)" xlink:href="#ay"/><use transform="matrix(0.05,0,0,0.05,49.900000000000006,0)" xlink:href="#aw"/><use transform="matrix(0.05,0,0,0.05,53.85,0)" xlink:href="#az"/></g><path fill="#fff" d="M84 4C-5 8 30-112 23-190h32v120c0 31 7 50 39 49 72-2 45-101 50-169h31l1 190h-30c-1-10 1-25-2-33-11 22-28 36-60 37" id="aA"/><path fill="#fff" d="M114-163C36-179 61-72 57 0H25l-1-190h30c1 12-1 29 2 39 6-27 23-49 58-41v29" id="aB"/><path fill="#fff" d="M108 0H70L1-190h34L89-25l56-165h34" id="aC"/><path fill="#fff" d="M179-190L93 31C79 59 56 82 12 73V49c39 6 53-20 64-50L1-190h34L92-34l54-156h33" id="aD"/><g id="d"><use transform="matrix(0.05,0,0,0.05,0,0)" xlink:href="#au"/><use transform="matrix(0.05,0,0,0.05,12,0)" xlink:href="#aA"/><use transform="matrix(0.05,0,0,0.05,22,0)" xlink:href="#aB"/><use transform="matrix(0.05,0,0,0.05,27.950000000000003,0)" xlink:href="#aC"/><use transform="matrix(0.05,0,0,0.05,36.95,0)" xlink:href="#av"/><use transform="matrix(0.05,0,0,0.05,46.95,0)" xlink:href="#aD"/></g><path d="M140-251c81 0 123 46 123 126C263-46 219 4 140 4 59 4 17-45 17-125s42-126 123-126zm0 227c63 0 89-41 89-101s-29-99-89-99c-61 0-89 39-89 99S79-25 140-24" id="aE"/><path d="M114-163C36-179 61-72 57 0H25l-1-190h30c1 12-1 29 2 39 6-27 23-49 58-41v29" id="aF"/><path d="M59-47c-2 24 18 29 38 22v24C64 9 27 4 27-40v-127H5v-23h24l9-43h21v43h35v23H59v120" id="aG"/><g id="e"><use transform="matrix(0.05,0,0,0.05,0,0)" xlink:href="#aE"/><use transform="matrix(0.05,0,0,0.05,14,0)" xlink:href="#aF"/><use transform="matrix(0.05,0,0,0.05,19.95,0)" xlink:href="#at"/><use transform="matrix(0.05,0,0,0.05,29.950000000000003,0)" xlink:href="#al"/><use transform="matrix(0.05,0,0,0.05,39.95,0)" xlink:href="#as"/><use transform="matrix(0.05,0,0,0.05,49.95,0)" xlink:href="#ar"/><use transform="matrix(0.05,0,0,0.05,53.900000000000006,0)" xlink:href="#aj"/><use transform="matrix(0.05,0,0,0.05,62.900000000000006,0)" xlink:href="#al"/><use transform="matrix(0.05,0,0,0.05,72.9,0)" xlink:href="#aG"/><use transform="matrix(0.05,0,0,0.05,77.9,0)" xlink:href="#ar"/><use transform="matrix(0.05,0,0,0.05,81.85000000000001,0)" xlink:href="#ak"/><use transform="matrix(0.05,0,0,0.05,91.85000000000001,0)" xlink:href="#as"/></g><path d="M145-31C134-9 116 4 85 4 32 4 16-35 15-94c0-59 17-99 70-100 32-1 48 14 60 33 0-11-1-24 2-32h30l-1 268h-32zM93-21c41 0 51-33 51-76s-8-73-50-73c-40 0-46 35-46 75s5 74 45 74" id="aH"/><path d="M84 4C-5 8 30-112 23-190h32v120c0 31 7 50 39 49 72-2 45-101 50-169h31l1 190h-30c-1-10 1-25-2-33-11 22-28 36-60 37" id="aI"/><g id="f"><use transform="matrix(0.05,0,0,0.05,0,0)" xlink:href="#al"/><use transform="matrix(0.05,0,0,0.05,10,0)" xlink:href="#aH"/><use transform="matrix(0.05,0,0,0.05,20,0)" xlink:href="#aI"/><use transform="matrix(0.05,0,0,0.05,30,0)" xlink:href="#ar"/><use transform="matrix(0.05,0,0,0.05,33.95,0)" xlink:href="#aj"/><use transform="matrix(0.05,0,0,0.05,42.95,0)" xlink:href="#ar"/><use transform="matrix(0.05,0,0,0.05,46.900000000000006,0)" xlink:href="#aG"/><use transform="matrix(0.05,0,0,0.05,51.900000000000006,0)" xlink:href="#ar"/><use transform="matrix(0.05,0,0,0.05,55.85,0)" xlink:href="#ak"/><use transform="matrix(0.05,0,0,0.05,65.85000000000001,0)" xlink:href="#as"/></g><path d="M100-194c63 0 86 42 84 106H49c0 40 14 67 53 68 26 1 43-12 49-29l28 8c-11 28-37 45-77 45C44 4 14-33 15-96c1-61 26-98 85-98zm52 81c6-60-76-77-97-28-3 7-6 17-6 28h103" id="aJ"/><g id="g"><use transform="matrix(0.05,0,0,0.05,0,0)" xlink:href="#ak"/><use transform="matrix(0.05,0,0,0.05,10,0)" xlink:href="#ap"/><use transform="matrix(0.05,0,0,0.05,20,0)" xlink:href="#aJ"/><use transform="matrix(0.05,0,0,0.05,30,0)" xlink:href="#aF"/><use transform="matrix(0.05,0,0,0.05,35.95,0)" xlink:href="#al"/><use transform="matrix(0.05,0,0,0.05,45.95,0)" xlink:href="#aG"/><use transform="matrix(0.05,0,0,0.05,50.95,0)" xlink:href="#ak"/><use transform="matrix(0.05,0,0,0.05,60.95,0)" xlink:href="#aF"/></g><path d="M26 75v-336h71v23H56V52h41v23H26" id="aK"/><path d="M101-251c68 0 85 55 85 127S166 4 100 4C33 4 14-52 14-124c0-73 17-127 87-127zm-1 229c47 0 54-49 54-102s-4-102-53-102c-51 0-55 48-55 102 0 53 5 102 54 102" id="aL"/><path d="M33 0v-38h34V0H33" id="aM"/><path d="M27 0v-27h64v-190l-56 39v-29l58-41h29v221h61V0H27" id="aN"/><path d="M3 75V52h41v-290H3v-23h71V75H3" id="aO"/><g id="h"><use transform="matrix(0.05,0,0,0.05,0,0)" xlink:href="#aK"/><use transform="matrix(0.05,0,0,0.05,5,0)" xlink:href="#aL"/><use transform="matrix(0.05,0,0,0.05,15,0)" xlink:href="#aM"/><use transform="matrix(0.05,0,0,0.05,20,0)" xlink:href="#aM"/><use transform="matrix(0.05,0,0,0.05,25,0)" xlink:href="#aN"/><use transform="matrix(0.05,0,0,0.05,35,0)" xlink:href="#aO"/></g><g id="i"><use transform="matrix(0.05,0,0,0.05,0,0)" xlink:href="#aG"/><use transform="matrix(0.05,0,0,0.05,5,0)" xlink:href="#ar"/><use transform="matrix(0.05,0,0,0.05,8.95,0)" xlink:href="#ao"/><use transform="matrix(0.05,0,0,0.05,23.9,0)" xlink:href="#aJ"/></g><path d="M106-169C34-169 62-67 57 0H25v-261h32l-1 103c12-21 28-36 61-36 89 0 53 116 60 194h-32v-121c2-32-8-49-39-48" id="aP"/><path d="M127-220V0H93v-220H8v-28h204v28h-85" id="aQ"/><g id="j"><use transform="matrix(0.05,0,0,0.05,0,0)" xlink:href="#aP"/><use transform="matrix(0.05,0,0,0.05,10,0)" xlink:href="#al"/><use transform="matrix(0.05,0,0,0.05,20,0)" xlink:href="#aj"/><use transform="matrix(0.05,0,0,0.05,29,0)" xlink:href="#aQ"/><use transform="matrix(0.05,0,0,0.05,39.300000000000004,0)" xlink:href="#ar"/><use transform="matrix(0.05,0,0,0.05,43.25000000000001,0)" xlink:href="#ao"/><use transform="matrix(0.05,0,0,0.05,58.20000000000002,0)" xlink:href="#aJ"/></g><g id="k"><use transform="matrix(0.05,0,0,0.05,0,0)" xlink:href="#aK"/><use transform="matrix(0.05,0,0,0.05,5,0)" xlink:href="#aN"/><use transform="matrix(0.05,0,0,0.05,15,0)" xlink:href="#aO"/></g><path d="M141 0L90-78 38 0H4l68-98-65-92h35l48 74 47-74h35l-64 92 68 98h-35" id="aR"/><path d="M85-194c31 0 48 13 60 33l-1-100h32l1 261h-30c-2-10 0-23-3-31C134-8 116 4 85 4 32 4 16-35 15-94c0-66 23-100 70-100zm9 24c-40 0-46 34-46 75 0 40 6 74 45 74 42 0 51-32 51-76 0-42-9-74-50-73" id="aS"/><g id="l"><use transform="matrix(0.05,0,0,0.05,0,0)" xlink:href="#aR"/><use transform="matrix(0.05,0,0,0.05,9,0)" xlink:href="#aj"/><use transform="matrix(0.05,0,0,0.05,18,0)" xlink:href="#aS"/><use transform="matrix(0.05,0,0,0.05,28,0)" xlink:href="#am"/><use transform="matrix(0.05,0,0,0.05,33,0)" xlink:href="#aj"/><use transform="matrix(0.05,0,0,0.05,42,0)" xlink:href="#aG"/><use transform="matrix(0.05,0,0,0.05,47,0)" xlink:href="#aF"/><use transform="matrix(0.05,0,0,0.05,52.95,0)" xlink:href="#ar"/><use transform="matrix(0.05,0,0,0.05,56.900000000000006,0)" xlink:href="#as"/><use transform="matrix(0.05,0,0,0.05,66.9,0)" xlink:href="#at"/></g><path d="M96-169c-40 0-48 33-48 73s9 75 48 75c24 0 41-14 43-38l32 2c-6 37-31 61-74 61-59 0-76-41-82-99-10-93 101-131 147-64 4 7 5 14 7 22l-32 3c-4-21-16-35-41-35" id="aT"/><g id="m"><use transform="matrix(0.05,0,0,0.05,0,0)" xlink:href="#aS"/><use transform="matrix(0.05,0,0,0.05,10,0)" xlink:href="#aT"/><use transform="matrix(0.05,0,0,0.05,19,0)" xlink:href="#aG"/><use transform="matrix(0.05,0,0,0.05,24,0)" xlink:href="#am"/><use transform="matrix(0.05,0,0,0.05,29,0)" xlink:href="#aG"/><use transform="matrix(0.05,0,0,0.05,34,0)" xlink:href="#ar"/><use transform="matrix(0.05,0,0,0.05,37.95,0)" xlink:href="#aG"/><use transform="matrix(0.05,0,0,0.05,42.95,0)" xlink:href="#aq"/><use transform="matrix(0.05,0,0,0.05,46.900000000000006,0)" xlink:href="#aJ"/></g><g id="n"><use transform="matrix(0.05,0,0,0.05,0,0)" xlink:href="#aG"/><use transform="matrix(0.05,0,0,0.05,5,0)" xlink:href="#ar"/><use transform="matrix(0.05,0,0,0.05,8.95,0)" xlink:href="#ao"/><use transform="matrix(0.05,0,0,0.05,23.9,0)" xlink:href="#aJ"/><use transform="matrix(0.05,0,0,0.05,33.9,0)" xlink:href="#am"/><use transform="matrix(0.05,0,0,0.05,38.9,0)" xlink:href="#aP"/><use transform="matrix(0.05,0,0,0.05,48.9,0)" xlink:href="#al"/><use transform="matrix(0.05,0,0,0.05,58.900000000000006,0)" xlink:href="#aj"/><use transform="matrix(0.05,0,0,0.05,67.9,0)" xlink:href="#an"/><use transform="matrix(0.05,0,0,0.05,79.9,0)" xlink:href="#aG"/><use transform="matrix(0.05,0,0,0.05,84.9,0)" xlink:href="#al"/><use transform="matrix(0.05,0,0,0.05,94.9,0)" xlink:href="#aF"/><use transform="matrix(0.05,0,0,0.05,100.85000000000001,0)" xlink:href="#aG"/><use transform="matrix(0.05,0,0,0.05,105.85000000000001,0)" xlink:href="#aQ"/><use transform="matrix(0.05,0,0,0.05,116.15,0)" xlink:href="#ar"/><use transform="matrix(0.05,0,0,0.05,120.10000000000001,0)" xlink:href="#ao"/><use transform="matrix(0.05,0,0,0.05,135.05,0)" xlink:href="#aJ"/></g><path d="M44-68c0 29 11 47 38 47 30 0 42-19 51-41l28 9C148-21 126 4 82 4 31 4 10-29 12-85c3-77 74-140 146-93 12 8 15 23 18 40l-31 5c-1-22-13-36-36-36-52 0-65 49-65 101" id="aU"/><path d="M30-147c31-64 166-65 159 27C183-49 158 1 86 4 9 8 1-88 30-147zM88-20c53 0 68-48 68-100 0-31-11-51-44-50-52 1-68 46-68 97 0 32 13 53 44 53" id="aV"/><path d="M248-111c6-24 9-61-24-58-72 9-57 108-77 169h-31l26-142c3-37-50-30-64-10C52-115 50-51 37 0H6l36-190h30c-1 10-6 24-4 32 13-43 101-52 105 5 13-22 29-41 61-41 90 0 28 129 23 194h-31" id="aW"/><path d="M111-194c62-3 86 47 72 106H45c-7 38 6 69 45 68 27-1 43-14 53-32l24 11C152-15 129 4 87 4 38 3 12-23 12-71c0-70 32-119 99-123zm44 81c14-66-71-72-95-28-4 8-8 17-11 28h106" id="aX"/><path d="M67-158c22-48 132-52 116 29L158 0h-32l25-140c3-38-53-32-70-12C52-117 51-52 38 0H6l36-190h30" id="aY"/><g id="o"><use transform="matrix(0.05,0,0,0.05,0,0)" xlink:href="#aU"/><use transform="matrix(0.05,0,0,0.05,9,0)" xlink:href="#aV"/><use transform="matrix(0.05,0,0,0.05,19,0)" xlink:href="#aW"/><use transform="matrix(0.05,0,0,0.05,33.95,0)" xlink:href="#aW"/><use transform="matrix(0.05,0,0,0.05,48.900000000000006,0)" xlink:href="#aX"/><use transform="matrix(0.05,0,0,0.05,58.900000000000006,0)" xlink:href="#aY"/><use transform="matrix(0.05,0,0,0.05,68.9,0)" xlink:href="#aU"/><use transform="matrix(0.05,0,0,0.05,77.9,0)" xlink:href="#aX"/></g><g id="p"><use transform="matrix(0.05,0,0,0.05,0,0)" xlink:href="#aR"/><use transform="matrix(0.05,0,0,0.05,9,0)" xlink:href="#aj"/><use transform="matrix(0.05,0,0,0.05,18,0)" xlink:href="#aS"/><use transform="matrix(0.05,0,0,0.05,28,0)" xlink:href="#am"/><use transform="matrix(0.05,0,0,0.05,33,0)" xlink:href="#aS"/><use transform="matrix(0.05,0,0,0.05,43,0)" xlink:href="#al"/><use transform="matrix(0.05,0,0,0.05,53,0)" xlink:href="#aG"/><use transform="matrix(0.05,0,0,0.05,58,0)" xlink:href="#aJ"/><use transform="matrix(0.05,0,0,0.05,68,0)" xlink:href="#aQ"/><use transform="matrix(0.05,0,0,0.05,78.3,0)" xlink:href="#ar"/><use transform="matrix(0.05,0,0,0.05,82.25,0)" xlink:href="#ao"/><use transform="matrix(0.05,0,0,0.05,97.2,0)" xlink:href="#aJ"/></g><path d="M30 0v-248h187v28H63v79h144v27H63v87h162V0H30" id="aZ"/><g id="q"><use transform="matrix(0.05,0,0,0.05,0,0)" xlink:href="#aG"/><use transform="matrix(0.05,0,0,0.05,5,0)" xlink:href="#ar"/><use transform="matrix(0.05,0,0,0.05,8.95,0)" xlink:href="#ao"/><use transform="matrix(0.05,0,0,0.05,23.9,0)" xlink:href="#aJ"/><use transform="matrix(0.05,0,0,0.05,33.9,0)" xlink:href="#am"/><use transform="matrix(0.05,0,0,0.05,38.9,0)" xlink:href="#aP"/><use transform="matrix(0.05,0,0,0.05,48.9,0)" xlink:href="#al"/><use transform="matrix(0.05,0,0,0.05,58.900000000000006,0)" xlink:href="#aj"/><use transform="matrix(0.05,0,0,0.05,67.9,0)" xlink:href="#aZ"/><use transform="matrix(0.05,0,0,0.05,79.9,0)" xlink:href="#as"/><use transform="matrix(0.05,0,0,0.05,89.9,0)" xlink:href="#aS"/><use transform="matrix(0.05,0,0,0.05,99.9,0)" xlink:href="#aQ"/><use transform="matrix(0.05,0,0,0.05,110.2,0)" xlink:href="#ar"/><use transform="matrix(0.05,0,0,0.05,114.15,0)" xlink:href="#ao"/><use transform="matrix(0.05,0,0,0.05,129.1,0)" xlink:href="#aJ"/></g><path d="M67-162c32-53 139-36 121 50C175-51 163 2 97 4 68 4 52-11 42-31 38 6 28 39 22 75H-9l50-265h29c-1 10 0 20-3 28zm89 36c0-26-10-43-35-43-54 0-67 50-69 103-1 29 14 45 42 46 53 0 62-58 62-106" id="ba"/><path d="M6 0l50-261h32L37 0H6" id="bb"/><path d="M51-54c-9 22 5 41 31 30L79-1C43 14 10-4 19-52l22-115H19l5-23h22l19-43h21l-9 43h35l-4 23H73" id="bc"/><path d="M50-231l6-30h32l-6 30H50zM6 0l37-190h31L37 0H6" id="bd"/><g id="r"><use transform="matrix(0.05,0,0,0.05,0,0)" xlink:href="#aU"/><use transform="matrix(0.05,0,0,0.05,9,0)" xlink:href="#aV"/><use transform="matrix(0.05,0,0,0.05,19,0)" xlink:href="#aW"/><use transform="matrix(0.05,0,0,0.05,33.95,0)" xlink:href="#ba"/><use transform="matrix(0.05,0,0,0.05,43.95,0)" xlink:href="#bb"/><use transform="matrix(0.05,0,0,0.05,47.900000000000006,0)" xlink:href="#aX"/><use transform="matrix(0.05,0,0,0.05,57.900000000000006,0)" xlink:href="#bc"/><use transform="matrix(0.05,0,0,0.05,62.900000000000006,0)" xlink:href="#bd"/><use transform="matrix(0.05,0,0,0.05,66.85000000000001,0)" xlink:href="#aV"/><use transform="matrix(0.05,0,0,0.05,76.85000000000001,0)" xlink:href="#aY"/></g><path fill="#fff" d="M141-36C126-15 110 5 73 4 37 3 15-17 15-53c-1-64 63-63 125-63 3-35-9-54-41-54-24 1-41 7-42 31l-33-3c5-37 33-52 76-52 45 0 72 20 72 64v82c-1 20 7 32 28 27v20c-31 9-61-2-59-35zM48-53c0 20 12 33 32 33 41-3 63-29 60-74-43 2-92-5-92 41" id="be"/><path fill="#fff" d="M115-194c55 1 70 41 70 98S169 2 115 4C84 4 66-9 55-30l1 105H24l-1-265h31l2 30c10-21 28-34 59-34zm-8 174c40 0 45-34 45-75s-6-73-45-74c-42 0-51 32-51 76 0 43 10 73 51 73" id="bf"/><path fill="#fff" d="M24 0v-261h32V0H24" id="bg"/><path fill="#fff" d="M117-194c89-4 53 116 60 194h-32v-121c0-31-8-49-39-48C34-167 62-67 57 0H25l-1-190h30c1 10-1 24 2 32 11-22 29-35 61-36" id="bh"/><path fill="#fff" d="M177-190C167-65 218 103 67 71c-23-6-38-20-44-43l32-5c15 47 100 32 89-28v-30C133-14 115 1 83 1 29 1 15-40 15-95c0-56 16-97 71-98 29-1 48 16 59 35 1-10 0-23 2-32h30zM94-22c36 0 50-32 50-73 0-42-14-75-50-75-39 0-46 34-46 75s6 73 46 73" id="bi"/><g id="s"><use transform="matrix(0.05,0,0,0.05,0,0)" xlink:href="#au"/><use transform="matrix(0.05,0,0,0.05,12,0)" xlink:href="#be"/><use transform="matrix(0.05,0,0,0.05,22,0)" xlink:href="#ay"/><use transform="matrix(0.05,0,0,0.05,36.95,0)" xlink:href="#bf"/><use transform="matrix(0.05,0,0,0.05,46.95,0)" xlink:href="#bg"/><use transform="matrix(0.05,0,0,0.05,50.900000000000006,0)" xlink:href="#aw"/><use transform="matrix(0.05,0,0,0.05,54.85,0)" xlink:href="#bh"/><use transform="matrix(0.05,0,0,0.05,64.85000000000001,0)" xlink:href="#bi"/></g><path fill="#fff" d="M30-248c118-7 216 8 213 122C240-48 200 0 122 0H30v-248zM63-27c89 8 146-16 146-99s-60-101-146-95v194" id="bj"/><path fill="#fff" d="M59-47c-2 24 18 29 38 22v24C64 9 27 4 27-40v-127H5v-23h24l9-43h21v43h35v23H59v120" id="bk"/><g id="t"><use transform="matrix(0.05,0,0,0.05,0,0)" xlink:href="#bj"/><use transform="matrix(0.05,0,0,0.05,12.950000000000001,0)" xlink:href="#be"/><use transform="matrix(0.05,0,0,0.05,22.950000000000003,0)" xlink:href="#bk"/><use transform="matrix(0.05,0,0,0.05,27.950000000000003,0)" xlink:href="#be"/><use transform="matrix(0.05,0,0,0.05,37.95,0)" xlink:href="#ax"/><use transform="matrix(0.05,0,0,0.05,46.95,0)" xlink:href="#av"/><use transform="matrix(0.05,0,0,0.05,56.95,0)" xlink:href="#bk"/></g><path d="M101-234c-31-9-42 10-38 44h38v23H63V0H32v-167H5v-23h27c-7-52 17-82 69-68v24" id="bl"/><path d="M179-190L93 31C79 59 56 82 12 73V49c39 6 53-20 64-50L1-190h34L92-34l54-156h33" id="bm"/><g id="u"><use transform="matrix(0.05,0,0,0.05,0,0)" xlink:href="#aF"/><use transform="matrix(0.05,0,0,0.05,5.95,0)" xlink:href="#aS"/><use transform="matrix(0.05,0,0,0.05,15.949999999999998,0)" xlink:href="#bl"/><use transform="matrix(0.05,0,0,0.05,20.95,0)" xlink:href="#am"/><use transform="matrix(0.05,0,0,0.05,25.950000000000003,0)" xlink:href="#ap"/><use transform="matrix(0.05,0,0,0.05,35.95,0)" xlink:href="#aF"/><use transform="matrix(0.05,0,0,0.05,41.900000000000006,0)" xlink:href="#ak"/><use transform="matrix(0.05,0,0,0.05,51.900000000000006,0)" xlink:href="#ap"/><use transform="matrix(0.05,0,0,0.05,61.900000000000006,0)" xlink:href="#aJ"/><use transform="matrix(0.05,0,0,0.05,71.9,0)" xlink:href="#aF"/><use transform="matrix(0.05,0,0,0.05,77.85000000000001,0)" xlink:href="#aG"/><use transform="matrix(0.05,0,0,0.05,82.85000000000001,0)" xlink:href="#bm"/></g><path d="M143 0L79-87 56-68V0H24v-261h32v163l83-92h37l-77 82L181 0h-38" id="bn"/><g id="v"><use transform="matrix(0.05,0,0,0.05,0,0)" xlink:href="#aj"/><use transform="matrix(0.05,0,0,0.05,9,0)" xlink:href="#bn"/><use transform="matrix(0.05,0,0,0.05,18,0)" xlink:href="#ak"/><use transform="matrix(0.05,0,0,0.05,28,0)" xlink:href="#aj"/><use transform="matrix(0.05,0,0,0.05,37,0)" xlink:href="#am"/></g><path d="M212-179c-10-28-35-45-73-45-59 0-87 40-87 99 0 60 29 101 89 101 43 0 62-24 78-52l27 14C228-24 195 4 139 4 59 4 22-46 18-125c-6-104 99-153 187-111 19 9 31 26 39 46" id="bo"/><g id="w"><use transform="matrix(0.05,0,0,0.05,0,0)" xlink:href="#bo"/><use transform="matrix(0.05,0,0,0.05,12.950000000000001,0)" xlink:href="#ak"/><use transform="matrix(0.05,0,0,0.05,22.950000000000003,0)" xlink:href="#as"/><use transform="matrix(0.05,0,0,0.05,32.95,0)" xlink:href="#aT"/><use transform="matrix(0.05,0,0,0.05,41.95,0)" xlink:href="#aJ"/><use transform="matrix(0.05,0,0,0.05,51.95,0)" xlink:href="#ap"/><use transform="matrix(0.05,0,0,0.05,61.95,0)" xlink:href="#aG"/></g><path fill="#fff" d="M143 4C61 4 22-44 18-125c-5-107 100-154 193-111 17 8 29 25 37 43l-32 9c-13-25-37-40-76-40-61 0-88 39-88 99 0 61 29 100 91 101 35 0 62-11 79-27v-45h-74v-28h105v86C228-13 192 4 143 4" id="bp"/><path fill="#fff" d="M140-251c81 0 123 46 123 126C263-53 228-8 163 1c7 30 30 48 69 40v23c-55 16-95-15-103-61C56-3 17-48 17-125c0-80 42-126 123-126zm0 227c63 0 89-41 89-101s-29-99-89-99c-61 0-89 39-89 99S79-25 140-24" id="bq"/><g id="x"><use transform="matrix(0.05,0,0,0.05,0,0)" xlink:href="#bp"/><use transform="matrix(0.05,0,0,0.05,14,0)" xlink:href="#au"/><use transform="matrix(0.05,0,0,0.05,26,0)" xlink:href="#bq"/></g><path fill="#fff" d="M212-179c-10-28-35-45-73-45-59 0-87 40-87 99 0 60 29 101 89 101 43 0 62-24 78-52l27 14C228-24 195 4 139 4 59 4 22-46 18-125c-6-104 99-153 187-111 19 9 31 26 39 46" id="br"/><g id="y"><use transform="matrix(0.05,0,0,0.05,0,0)" xlink:href="#br"/><use transform="matrix(0.05,0,0,0.05,12.950000000000001,0)" xlink:href="#bg"/><use transform="matrix(0.05,0,0,0.05,16.900000000000002,0)" xlink:href="#be"/><use transform="matrix(0.05,0,0,0.05,26.900000000000002,0)" xlink:href="#ax"/><use transform="matrix(0.05,0,0,0.05,35.900000000000006,0)" xlink:href="#ax"/></g><path d="M30-248c118-7 216 8 213 122C240-48 200 0 122 0H30v-248zM63-27c89 8 146-16 146-99s-60-101-146-95v194" id="bs"/><g id="z"><use transform="matrix(0.05,0,0,0.05,0,0)" xlink:href="#bs"/><use transform="matrix(0.05,0,0,0.05,12.950000000000001,0)" xlink:href="#ar"/><use transform="matrix(0.05,0,0,0.05,16.900000000000002,0)" xlink:href="#al"/><use transform="matrix(0.05,0,0,0.05,26.900000000000002,0)" xlink:href="#at"/><use transform="matrix(0.05,0,0,0.05,36.900000000000006,0)" xlink:href="#aF"/><use transform="matrix(0.05,0,0,0.05,42.85000000000001,0)" xlink:href="#al"/><use transform="matrix(0.05,0,0,0.05,52.85,0)" xlink:href="#ao"/><path d="M-.9 1.25h74.6v1.32H-.9z"/></g><g id="A"><use transform="matrix(0.05,0,0,0.05,0,0)" xlink:href="#aZ"/><use transform="matrix(0.05,0,0,0.05,12,0)" xlink:href="#aq"/><use transform="matrix(0.05,0,0,0.05,15.949999999999998,0)" xlink:href="#aJ"/><use transform="matrix(0.05,0,0,0.05,25.950000000000003,0)" xlink:href="#ao"/><use transform="matrix(0.05,0,0,0.05,40.9,0)" xlink:href="#aJ"/><use transform="matrix(0.05,0,0,0.05,50.9,0)" xlink:href="#as"/><use transform="matrix(0.05,0,0,0.05,60.900000000000006,0)" xlink:href="#aG"/><path d="M-.9 1.25h72.7v1.32H-.9z"/></g><path d="M194 0L95-120 63-95V0H30v-248h33v124l119-124h40L117-140 236 0h-42" id="bt"/><g id="B"><use transform="matrix(0.05,0,0,0.05,0,0)" xlink:href="#bt"/><use transform="matrix(0.05,0,0,0.05,12,0)" xlink:href="#aJ"/><use transform="matrix(0.05,0,0,0.05,22,0)" xlink:href="#bm"/><path d="M-.9 1.25h32.8v1.32H-.9z"/></g><path d="M206 0h-36l-40-164L89 0H53L-1-190h32L70-26l43-164h34l41 164 42-164h31" id="bu"/><g id="C"><use transform="matrix(0.05,0,0,0.05,0,0)" xlink:href="#ak"/><use transform="matrix(0.05,0,0,0.05,10,0)" xlink:href="#bu"/><use transform="matrix(0.05,0,0,0.05,22.950000000000003,0)" xlink:href="#aq"/><use transform="matrix(0.05,0,0,0.05,26.900000000000002,0)" xlink:href="#am"/><use transform="matrix(0.05,0,0,0.05,31.900000000000002,0)" xlink:href="#bo"/><use transform="matrix(0.05,0,0,0.05,44.85,0)" xlink:href="#aq"/><use transform="matrix(0.05,0,0,0.05,48.800000000000004,0)" xlink:href="#al"/><use transform="matrix(0.05,0,0,0.05,58.800000000000004,0)" xlink:href="#aj"/><use transform="matrix(0.05,0,0,0.05,67.80000000000001,0)" xlink:href="#aj"/></g><path d="M87 75C49 33 22-17 22-94c0-76 28-126 65-167h31c-38 41-64 92-64 168S80 34 118 75H87" id="bv"/><path d="M16-82v-28h88v28H16" id="bw"/><path d="M143 4C61 4 22-44 18-125c-5-107 100-154 193-111 17 8 29 25 37 43l-32 9c-13-25-37-40-76-40-61 0-88 39-88 99 0 61 29 100 91 101 35 0 62-11 79-27v-45h-74v-28h105v86C228-13 192 4 143 4" id="bx"/><path d="M140-251c81 0 123 46 123 126C263-53 228-8 163 1c7 30 30 48 69 40v23c-55 16-95-15-103-61C56-3 17-48 17-125c0-80 42-126 123-126zm0 227c63 0 89-41 89-101s-29-99-89-99c-61 0-89 39-89 99S79-25 140-24" id="by"/><g id="D"><use transform="matrix(0.05,0,0,0.05,0,0)" xlink:href="#bv"/><use transform="matrix(0.05,0,0,0.05,5.95,0)" xlink:href="#as"/><use transform="matrix(0.05,0,0,0.05,15.949999999999998,0)" xlink:href="#ak"/><use transform="matrix(0.05,0,0,0.05,25.950000000000003,0)" xlink:href="#as"/><use transform="matrix(0.05,0,0,0.05,35.95,0)" xlink:href="#bw"/><use transform="matrix(0.05,0,0,0.05,41.900000000000006,0)" xlink:href="#bx"/><use transform="matrix(0.05,0,0,0.05,55.900000000000006,0)" xlink:href="#an"/><use transform="matrix(0.05,0,0,0.05,67.9,0)" xlink:href="#by"/></g><path d="M33-261c38 41 65 92 65 168S71 34 33 75H2C39 34 66-17 66-93S39-220 2-261h31" id="bz"/><g id="E"><use transform="matrix(0.05,0,0,0.05,0,0)" xlink:href="#aT"/><use transform="matrix(0.05,0,0,0.05,9,0)" xlink:href="#aq"/><use transform="matrix(0.05,0,0,0.05,12.949999999999998,0)" xlink:href="#al"/><use transform="matrix(0.05,0,0,0.05,22.95,0)" xlink:href="#aj"/><use transform="matrix(0.05,0,0,0.05,31.950000000000003,0)" xlink:href="#aj"/><use transform="matrix(0.05,0,0,0.05,40.95,0)" xlink:href="#bz"/></g><path d="M108 0H70L1-190h34L89-25l56-165h34" id="bA"/><g id="F"><use transform="matrix(0.05,0,0,0.05,0,0)" xlink:href="#ap"/><use transform="matrix(0.05,0,0,0.05,10,0)" xlink:href="#aF"/><use transform="matrix(0.05,0,0,0.05,15.949999999999998,0)" xlink:href="#ak"/><use transform="matrix(0.05,0,0,0.05,25.950000000000003,0)" xlink:href="#bA"/><use transform="matrix(0.05,0,0,0.05,34.95,0)" xlink:href="#am"/></g><path d="M205 0l-28-72H64L36 0H1l101-248h38L239 0h-34zm-38-99l-47-123c-12 45-31 82-46 123h93" id="bB"/><g id="G"><use transform="matrix(0.05,0,0,0.05,0,0)" xlink:href="#bB"/><use transform="matrix(0.05,0,0,0.05,12,0)" xlink:href="#at"/><use transform="matrix(0.05,0,0,0.05,22,0)" xlink:href="#aJ"/><use transform="matrix(0.05,0,0,0.05,32,0)" xlink:href="#as"/><use transform="matrix(0.05,0,0,0.05,42,0)" xlink:href="#aG"/></g><path d="M233-177c-1 41-23 64-60 70L243 0h-38l-65-103H63V0H30v-248c88 3 205-21 203 71zM63-129c60-2 137 13 137-47 0-61-80-42-137-45v92" id="bC"/><g id="H"><use transform="matrix(0.05,0,0,0.05,0,0)" xlink:href="#aj"/><use transform="matrix(0.05,0,0,0.05,9,0)" xlink:href="#ak"/><use transform="matrix(0.05,0,0,0.05,19,0)" xlink:href="#aj"/><use transform="matrix(0.05,0,0,0.05,28,0)" xlink:href="#al"/><use transform="matrix(0.05,0,0,0.05,38,0)" xlink:href="#am"/><use transform="matrix(0.05,0,0,0.05,43,0)" xlink:href="#aP"/><use transform="matrix(0.05,0,0,0.05,53,0)" xlink:href="#al"/><use transform="matrix(0.05,0,0,0.05,63,0)" xlink:href="#aj"/><use transform="matrix(0.05,0,0,0.05,72,0)" xlink:href="#bC"/><use transform="matrix(0.05,0,0,0.05,84.95,0)" xlink:href="#aJ"/><use transform="matrix(0.05,0,0,0.05,94.95,0)" xlink:href="#aj"/><use transform="matrix(0.05,0,0,0.05,103.95,0)" xlink:href="#aI"/><use transform="matrix(0.05,0,0,0.05,113.95,0)" xlink:href="#aq"/><use transform="matrix(0.05,0,0,0.05,117.9,0)" xlink:href="#aG"/></g><path d="M80-196l47-18 7 23-49 13 32 44-20 13-27-46-27 45-21-12 33-44-49-13 8-23 47 19-2-53h23" id="bD"/><g id="I"><use transform="matrix(0.05,0,0,0.05,0,0)" xlink:href="#aK"/><use transform="matrix(0.05,0,0,0.05,5,0)" xlink:href="#aL"/><use transform="matrix(0.05,0,0,0.05,15,0)" xlink:href="#aM"/><use transform="matrix(0.05,0,0,0.05,20,0)" xlink:href="#aM"/><use transform="matrix(0.05,0,0,0.05,25,0)" xlink:href="#bD"/><use transform="matrix(0.05,0,0,0.05,32,0)" xlink:href="#aO"/></g><path d="M115-194c53 0 69 39 70 98 0 66-23 100-70 100C84 3 66-7 56-30L54 0H23l1-261h32v101c10-23 28-34 59-34zm-8 174c40 0 45-34 45-75 0-40-5-75-45-74-42 0-51 32-51 76 0 43 10 73 51 73" id="bE"/><g id="J"><use transform="matrix(0.05,0,0,0.05,0,0)" xlink:href="#aF"/><use transform="matrix(0.05,0,0,0.05,5.95,0)" xlink:href="#aS"/><use transform="matrix(0.05,0,0,0.05,15.949999999999998,0)" xlink:href="#bl"/><use transform="matrix(0.05,0,0,0.05,20.95,0)" xlink:href="#aj"/><use transform="matrix(0.05,0,0,0.05,29.950000000000003,0)" xlink:href="#am"/><use transform="matrix(0.05,0,0,0.05,34.95,0)" xlink:href="#aj"/><use transform="matrix(0.05,0,0,0.05,43.95,0)" xlink:href="#aI"/><use transform="matrix(0.05,0,0,0.05,53.95,0)" xlink:href="#bE"/><use transform="matrix(0.05,0,0,0.05,63.95,0)" xlink:href="#bo"/><use transform="matrix(0.05,0,0,0.05,76.9,0)" xlink:href="#aq"/><use transform="matrix(0.05,0,0,0.05,80.85000000000001,0)" xlink:href="#al"/><use transform="matrix(0.05,0,0,0.05,90.85000000000001,0)" xlink:href="#aj"/><use transform="matrix(0.05,0,0,0.05,99.85000000000001,0)" xlink:href="#aj"/><use transform="matrix(0.05,0,0,0.05,108.85000000000001,0)" xlink:href="#aE"/><use transform="matrix(0.05,0,0,0.05,122.85000000000001,0)" xlink:href="#bl"/></g><g id="K"><use transform="matrix(0.05,0,0,0.05,0,0)" xlink:href="#aR"/><use transform="matrix(0.05,0,0,0.05,9,0)" xlink:href="#aj"/><use transform="matrix(0.05,0,0,0.05,18,0)" xlink:href="#aS"/><use transform="matrix(0.05,0,0,0.05,28,0)" xlink:href="#am"/><use transform="matrix(0.05,0,0,0.05,33,0)" xlink:href="#aS"/><use transform="matrix(0.05,0,0,0.05,43,0)" xlink:href="#al"/><use transform="matrix(0.05,0,0,0.05,53,0)" xlink:href="#aG"/><use transform="matrix(0.05,0,0,0.05,58,0)" xlink:href="#aJ"/></g><g id="L"><use transform="matrix(0.05,0,0,0.05,0,0)" xlink:href="#aS"/><use transform="matrix(0.05,0,0,0.05,10,0)" xlink:href="#aT"/><use transform="matrix(0.05,0,0,0.05,19,0)" xlink:href="#aG"/><use transform="matrix(0.05,0,0,0.05,24,0)" xlink:href="#am"/><use transform="matrix(0.05,0,0,0.05,29,0)" xlink:href="#aT"/><use transform="matrix(0.05,0,0,0.05,38,0)" xlink:href="#aF"/><use transform="matrix(0.05,0,0,0.05,43.95,0)" xlink:href="#aJ"/><use transform="matrix(0.05,0,0,0.05,53.95,0)" xlink:href="#al"/><use transform="matrix(0.05,0,0,0.05,63.95,0)" xlink:href="#aG"/><use transform="matrix(0.05,0,0,0.05,68.95,0)" xlink:href="#aJ"/><use transform="matrix(0.05,0,0,0.05,78.95,0)" xlink:href="#aS"/></g><g id="M"><use transform="matrix(0.05,0,0,0.05,0,0)" xlink:href="#aS"/><use transform="matrix(0.05,0,0,0.05,10,0)" xlink:href="#aT"/><use transform="matrix(0.05,0,0,0.05,19,0)" xlink:href="#aG"/><use transform="matrix(0.05,0,0,0.05,24,0)" xlink:href="#am"/><use transform="matrix(0.05,0,0,0.05,29,0)" xlink:href="#ar"/><use transform="matrix(0.05,0,0,0.05,32.95,0)" xlink:href="#aj"/><use transform="matrix(0.05,0,0,0.05,41.95,0)" xlink:href="#aj"/><use transform="matrix(0.05,0,0,0.05,50.95,0)" xlink:href="#aI"/><use transform="matrix(0.05,0,0,0.05,60.95,0)" xlink:href="#aJ"/><use transform="matrix(0.05,0,0,0.05,70.95,0)" xlink:href="#aS"/></g><g id="N"><use transform="matrix(0.05,0,0,0.05,0,0)" xlink:href="#aP"/><use transform="matrix(0.05,0,0,0.05,10,0)" xlink:href="#al"/><use transform="matrix(0.05,0,0,0.05,20,0)" xlink:href="#aj"/></g><g id="O"><use transform="matrix(0.05,0,0,0.05,0,0)" xlink:href="#aj"/><use transform="matrix(0.05,0,0,0.05,9,0)" xlink:href="#aI"/><use transform="matrix(0.05,0,0,0.05,19,0)" xlink:href="#aF"/><use transform="matrix(0.05,0,0,0.05,24.95,0)" xlink:href="#bA"/><use transform="matrix(0.05,0,0,0.05,33.95,0)" xlink:href="#aJ"/><use transform="matrix(0.05,0,0,0.05,43.95,0)" xlink:href="#bm"/></g><g id="P"><use transform="matrix(0.05,0,0,0.05,0,0)" xlink:href="#aj"/><use transform="matrix(0.05,0,0,0.05,9,0)" xlink:href="#aG"/><use transform="matrix(0.05,0,0,0.05,14,0)" xlink:href="#al"/><use transform="matrix(0.05,0,0,0.05,24,0)" xlink:href="#aG"/><use transform="matrix(0.05,0,0,0.05,29,0)" xlink:href="#aI"/><use transform="matrix(0.05,0,0,0.05,39,0)" xlink:href="#aj"/></g><g id="Q"><use transform="matrix(0.05,0,0,0.05,0,0)" xlink:href="#an"/><use transform="matrix(0.05,0,0,0.05,12,0)" xlink:href="#aJ"/><use transform="matrix(0.05,0,0,0.05,22,0)" xlink:href="#ar"/><use transform="matrix(0.05,0,0,0.05,25.950000000000003,0)" xlink:href="#aj"/><use transform="matrix(0.05,0,0,0.05,34.95,0)" xlink:href="#ao"/><use transform="matrix(0.05,0,0,0.05,49.900000000000006,0)" xlink:href="#ar"/><use transform="matrix(0.05,0,0,0.05,53.85,0)" xlink:href="#aT"/></g><g id="R"><use transform="matrix(0.05,0,0,0.05,0,0)" xlink:href="#an"/><use transform="matrix(0.05,0,0,0.05,12,0)" xlink:href="#al"/><use transform="matrix(0.05,0,0,0.05,22,0)" xlink:href="#ao"/><use transform="matrix(0.05,0,0,0.05,36.95,0)" xlink:href="#ap"/><use transform="matrix(0.05,0,0,0.05,46.95,0)" xlink:href="#aq"/><use transform="matrix(0.05,0,0,0.05,50.900000000000006,0)" xlink:href="#ar"/><use transform="matrix(0.05,0,0,0.05,54.85,0)" xlink:href="#as"/><use transform="matrix(0.05,0,0,0.05,64.85000000000001,0)" xlink:href="#at"/></g><path d="M240 0l2-218c-23 76-54 145-80 218h-23L58-218 59 0H30v-248h44l77 211c21-75 51-140 76-211h43V0h-30" id="bF"/><g id="S"><use transform="matrix(0.05,0,0,0.05,0,0)" xlink:href="#bF"/><use transform="matrix(0.05,0,0,0.05,14.950000000000001,0)" xlink:href="#aJ"/><use transform="matrix(0.05,0,0,0.05,24.950000000000003,0)" xlink:href="#aG"/><use transform="matrix(0.05,0,0,0.05,29.950000000000003,0)" xlink:href="#aP"/><use transform="matrix(0.05,0,0,0.05,39.95,0)" xlink:href="#ak"/><use transform="matrix(0.05,0,0,0.05,49.95,0)" xlink:href="#aS"/></g><g id="T"><use transform="matrix(0.05,0,0,0.05,0,0)" xlink:href="#an"/><use transform="matrix(0.05,0,0,0.05,12,0)" xlink:href="#aI"/><use transform="matrix(0.05,0,0,0.05,22,0)" xlink:href="#aF"/><use transform="matrix(0.05,0,0,0.05,27.950000000000003,0)" xlink:href="#bA"/><use transform="matrix(0.05,0,0,0.05,36.95,0)" xlink:href="#aJ"/><use transform="matrix(0.05,0,0,0.05,46.95,0)" xlink:href="#bm"/></g><g id="U"><use transform="matrix(0.05,0,0,0.05,0,0)" xlink:href="#bs"/><use transform="matrix(0.05,0,0,0.05,12.950000000000001,0)" xlink:href="#ar"/><use transform="matrix(0.05,0,0,0.05,16.900000000000002,0)" xlink:href="#ao"/><use transform="matrix(0.05,0,0,0.05,31.85,0)" xlink:href="#aJ"/><use transform="matrix(0.05,0,0,0.05,41.85,0)" xlink:href="#as"/><use transform="matrix(0.05,0,0,0.05,51.85,0)" xlink:href="#aj"/><use transform="matrix(0.05,0,0,0.05,60.85,0)" xlink:href="#ar"/><use transform="matrix(0.05,0,0,0.05,64.8,0)" xlink:href="#ak"/><use transform="matrix(0.05,0,0,0.05,74.8,0)" xlink:href="#as"/><use transform="matrix(0.05,0,0,0.05,84.8,0)" xlink:href="#al"/><use transform="matrix(0.05,0,0,0.05,94.8,0)" xlink:href="#aq"/><use transform="matrix(0.05,0,0,0.05,98.75,0)" xlink:href="#ar"/><use transform="matrix(0.05,0,0,0.05,102.7,0)" xlink:href="#aG"/><use transform="matrix(0.05,0,0,0.05,107.7,0)" xlink:href="#bm"/></g><g id="V"><use transform="matrix(0.05,0,0,0.05,0,0)" xlink:href="#ao"/><use transform="matrix(0.05,0,0,0.05,14.950000000000001,0)" xlink:href="#aJ"/><use transform="matrix(0.05,0,0,0.05,24.950000000000003,0)" xlink:href="#aG"/><use transform="matrix(0.05,0,0,0.05,29.950000000000003,0)" xlink:href="#aP"/><use transform="matrix(0.05,0,0,0.05,39.95,0)" xlink:href="#ak"/><use transform="matrix(0.05,0,0,0.05,49.95,0)" xlink:href="#aS"/></g><g id="W"><use transform="matrix(0.05,0,0,0.05,0,0)" xlink:href="#an"/><use transform="matrix(0.05,0,0,0.05,12,0)" xlink:href="#aI"/><use transform="matrix(0.05,0,0,0.05,22,0)" xlink:href="#aF"/><use transform="matrix(0.05,0,0,0.05,27.950000000000003,0)" xlink:href="#bA"/><use transform="matrix(0.05,0,0,0.05,36.95,0)" xlink:href="#aJ"/><use transform="matrix(0.05,0,0,0.05,46.95,0)" xlink:href="#bm"/></g><g id="X"><use transform="matrix(0.05,0,0,0.05,0,0)" xlink:href="#an"/><use transform="matrix(0.05,0,0,0.05,12,0)" xlink:href="#aG"/><use transform="matrix(0.05,0,0,0.05,17,0)" xlink:href="#al"/><use transform="matrix(0.05,0,0,0.05,27,0)" xlink:href="#aG"/><use transform="matrix(0.05,0,0,0.05,32,0)" xlink:href="#aI"/><use transform="matrix(0.05,0,0,0.05,42,0)" xlink:href="#aj"/></g><g id="Y"><use transform="matrix(0.05,0,0,0.05,0,0)" xlink:href="#aS"/><use transform="matrix(0.05,0,0,0.05,10,0)" xlink:href="#ar"/><use transform="matrix(0.05,0,0,0.05,13.949999999999998,0)" xlink:href="#ao"/><use transform="matrix(0.05,0,0,0.05,28.899999999999995,0)" xlink:href="#aJ"/><use transform="matrix(0.05,0,0,0.05,38.9,0)" xlink:href="#as"/><use transform="matrix(0.05,0,0,0.05,48.9,0)" xlink:href="#aj"/><use transform="matrix(0.05,0,0,0.05,57.900000000000006,0)" xlink:href="#ar"/><use transform="matrix(0.05,0,0,0.05,61.85,0)" xlink:href="#ak"/><use transform="matrix(0.05,0,0,0.05,71.85,0)" xlink:href="#as"/><use transform="matrix(0.05,0,0,0.05,81.85,0)" xlink:href="#al"/><use transform="matrix(0.05,0,0,0.05,91.85,0)" xlink:href="#aq"/><use transform="matrix(0.05,0,0,0.05,95.8,0)" xlink:href="#ar"/><use transform="matrix(0.05,0,0,0.05,99.75,0)" xlink:href="#aG"/><use transform="matrix(0.05,0,0,0.05,104.75,0)" xlink:href="#bm"/></g><g id="Z"><use transform="matrix(0.05,0,0,0.05,0,0)" xlink:href="#at"/><use transform="matrix(0.05,0,0,0.05,10,0)" xlink:href="#aJ"/><use transform="matrix(0.05,0,0,0.05,20,0)" xlink:href="#ak"/><use transform="matrix(0.05,0,0,0.05,30,0)" xlink:href="#am"/></g><g id="aa"><use transform="matrix(0.05,0,0,0.05,0,0)" xlink:href="#aP"/><use transform="matrix(0.05,0,0,0.05,10,0)" xlink:href="#al"/><use transform="matrix(0.05,0,0,0.05,20,0)" xlink:href="#aj"/><use transform="matrix(0.05,0,0,0.05,29,0)" xlink:href="#bx"/><use transform="matrix(0.05,0,0,0.05,43,0)" xlink:href="#aJ"/><use transform="matrix(0.05,0,0,0.05,53,0)" xlink:href="#ak"/><use transform="matrix(0.05,0,0,0.05,63,0)" xlink:href="#ao"/><use transform="matrix(0.05,0,0,0.05,77.95,0)" xlink:href="#aJ"/><use transform="matrix(0.05,0,0,0.05,87.95,0)" xlink:href="#aG"/><use transform="matrix(0.05,0,0,0.05,92.95,0)" xlink:href="#aF"/><use transform="matrix(0.05,0,0,0.05,98.9,0)" xlink:href="#bm"/></g><g id="ab"><use transform="matrix(0.05,0,0,0.05,0,0)" xlink:href="#bx"/><use transform="matrix(0.05,0,0,0.05,14,0)" xlink:href="#aJ"/><use transform="matrix(0.05,0,0,0.05,24,0)" xlink:href="#ak"/><use transform="matrix(0.05,0,0,0.05,34,0)" xlink:href="#ao"/><use transform="matrix(0.05,0,0,0.05,48.95,0)" xlink:href="#aJ"/><use transform="matrix(0.05,0,0,0.05,58.95,0)" xlink:href="#aG"/><use transform="matrix(0.05,0,0,0.05,63.95,0)" xlink:href="#aF"/><use transform="matrix(0.05,0,0,0.05,69.9,0)" xlink:href="#bm"/></g><g id="ac"><use transform="matrix(0.05,0,0,0.05,0,0)" xlink:href="#aG"/><use transform="matrix(0.05,0,0,0.05,5,0)" xlink:href="#ar"/><use transform="matrix(0.05,0,0,0.05,8.95,0)" xlink:href="#ao"/><use transform="matrix(0.05,0,0,0.05,23.9,0)" xlink:href="#aJ"/><use transform="matrix(0.05,0,0,0.05,33.9,0)" xlink:href="#am"/></g><path d="M30-248c87 1 191-15 191 75 0 78-77 80-158 76V0H30v-248zm33 125c57 0 124 11 124-50 0-59-68-47-124-48v98" id="bG"/><path d="M33 0v-248h34V0H33" id="bH"/><g id="ad"><use transform="matrix(0.05,0,0,0.05,0,0)" xlink:href="#bG"/><use transform="matrix(0.05,0,0,0.05,12,0)" xlink:href="#aF"/><use transform="matrix(0.05,0,0,0.05,17.95,0)" xlink:href="#ak"/><use transform="matrix(0.05,0,0,0.05,27.950000000000003,0)" xlink:href="#ap"/><use transform="matrix(0.05,0,0,0.05,37.95,0)" xlink:href="#aJ"/><use transform="matrix(0.05,0,0,0.05,47.95,0)" xlink:href="#aF"/><use transform="matrix(0.05,0,0,0.05,53.900000000000006,0)" xlink:href="#bH"/><use transform="matrix(0.05,0,0,0.05,58.900000000000006,0)" xlink:href="#as"/><use transform="matrix(0.05,0,0,0.05,68.9,0)" xlink:href="#aG"/><use transform="matrix(0.05,0,0,0.05,73.9,0)" xlink:href="#aJ"/><use transform="matrix(0.05,0,0,0.05,83.9,0)" xlink:href="#aF"/><use transform="matrix(0.05,0,0,0.05,89.85000000000001,0)" xlink:href="#bA"/><use transform="matrix(0.05,0,0,0.05,98.85000000000001,0)" xlink:href="#al"/><use transform="matrix(0.05,0,0,0.05,108.85000000000001,0)" xlink:href="#aq"/></g><g id="ae"><use transform="matrix(0.05,0,0,0.05,0,0)" xlink:href="#aS"/><use transform="matrix(0.05,0,0,0.05,10,0)" xlink:href="#aT"/><use transform="matrix(0.05,0,0,0.05,19,0)" xlink:href="#aG"/><use transform="matrix(0.05,0,0,0.05,24,0)" xlink:href="#am"/><use transform="matrix(0.05,0,0,0.05,29,0)" xlink:href="#aj"/><use transform="matrix(0.05,0,0,0.05,38,0)" xlink:href="#ak"/><use transform="matrix(0.05,0,0,0.05,48,0)" xlink:href="#aI"/><use transform="matrix(0.05,0,0,0.05,58,0)" xlink:href="#aF"/><use transform="matrix(0.05,0,0,0.05,63.95,0)" xlink:href="#aT"/><use transform="matrix(0.05,0,0,0.05,72.95,0)" xlink:href="#aJ"/></g><g id="af"><use transform="matrix(0.05,0,0,0.05,0,0)" xlink:href="#bl"/><use transform="matrix(0.05,0,0,0.05,5,0)" xlink:href="#ak"/><use transform="matrix(0.05,0,0,0.05,15,0)" xlink:href="#al"/><use transform="matrix(0.05,0,0,0.05,25,0)" xlink:href="#bl"/><use transform="matrix(0.05,0,0,0.05,30,0)" xlink:href="#am"/></g><g id="ag"><use transform="matrix(0.05,0,0,0.05,0,0)" xlink:href="#bs"/><use transform="matrix(0.05,0,0,0.05,12.950000000000001,0)" xlink:href="#ak"/><use transform="matrix(0.05,0,0,0.05,22.950000000000003,0)" xlink:href="#aT"/><use transform="matrix(0.05,0,0,0.05,31.950000000000003,0)" xlink:href="#aI"/><use transform="matrix(0.05,0,0,0.05,41.95,0)" xlink:href="#ao"/><use transform="matrix(0.05,0,0,0.05,56.900000000000006,0)" xlink:href="#aJ"/><use transform="matrix(0.05,0,0,0.05,66.9,0)" xlink:href="#as"/><use transform="matrix(0.05,0,0,0.05,76.9,0)" xlink:href="#aG"/></g><path fill="#fff" d="M30-248c87 1 191-15 191 75 0 78-77 80-158 76V0H30v-248zm33 125c57 0 124 11 124-50 0-59-68-47-124-48v98" id="bI"/><g id="ah"><use transform="matrix(0.05,0,0,0.05,0,0)" xlink:href="#bI"/><use transform="matrix(0.05,0,0,0.05,12,0)" xlink:href="#av"/><use transform="matrix(0.05,0,0,0.05,22,0)" xlink:href="#aB"/><use transform="matrix(0.05,0,0,0.05,27.950000000000003,0)" xlink:href="#ay"/><use transform="matrix(0.05,0,0,0.05,42.9,0)" xlink:href="#aw"/><use transform="matrix(0.05,0,0,0.05,46.85,0)" xlink:href="#bk"/></g><g id="ai"><use transform="matrix(0.05,0,0,0.05,0,0)" xlink:href="#ap"/><use transform="matrix(0.05,0,0,0.05,10,0)" xlink:href="#aJ"/><use transform="matrix(0.05,0,0,0.05,20,0)" xlink:href="#aF"/><use transform="matrix(0.05,0,0,0.05,25.950000000000003,0)" xlink:href="#ao"/><use transform="matrix(0.05,0,0,0.05,40.9,0)" xlink:href="#ar"/><use transform="matrix(0.05,0,0,0.05,44.85,0)" xlink:href="#aG"/></g></defs></g></svg>