<svg xmlns="http://www.w3.org/2000/svg" xmlns:xlink="http://www.w3.org/1999/xlink" xmlns:lucid="lucid" width="1379.65" height="966.5"><g transform="translate(-0.3542958370239262 -20)" lucid:page-tab-id="rovf8YIAJoTT"><path d="M0 0h1428.9v1010.86H0z" fill="#fff"/><path d="M367.2 45c0-2.76 2.24-5 5-5h150c2.76 0 5 2.24 5 5v110c0 2.76-2.24 5-5 5h-150c-2.76 0-5-2.24-5-5z" stroke="#000" stroke-width="2" fill="#fff"/><use xlink:href="#a" transform="matrix(1,0,0,1,375.20106288751106,48) translate(50.5 44.8)"/><use xlink:href="#b" transform="matrix(1,0,0,1,375.20106288751106,48) translate(34.574999999999996 66.4)"/><path d="M464.8 329.8c0-2.76 2.24-5 5-5h150c2.76 0 5 2.24 5 5v110c0 2.76-2.24 5-5 5h-150c-2.76 0-5-2.24-5-5z" stroke="#000" stroke-width="2" fill="#666"/><use xlink:href="#c" transform="matrix(1,0,0,1,472.80070859167404,332.8007085917128) translate(44.025 55.6)"/><path d="M516.88 322.5l-1.84.77-61.53-144.85 1.85-.78z"/><path d="M517.43 323.8h-2.17l-.23-.55 1.84-.78z"/><path d="M458.3 175.3l-8.52 3.62-1.3-14.94z" fill="#fff"/><path d="M459.97 175.68l-11.07 4.7-1.7-19.38zm-9.32 1.78l6-2.55-6.92-7.94zM605.35 697l-1.94.46L578.9 594h2.05zM570.7 550.8h-2.05L544.05 447l1.95-.46z"/><path d="M546 446.57l-1.94.46-.3-1.23h2.07zM611.24 678.3L604.8 699l-15.05-15.62 1.44-1.4 12.7 13.2 5.43-17.5z"/><use xlink:href="#d" transform="matrix(1,0,0,1,528.200708591674,550.800354295934) translate(27.155000000000012 14.4)"/><use xlink:href="#e" transform="matrix(1,0,0,1,528.200708591674,550.800354295934) translate(0.005000000000002558 36)"/><use xlink:href="#f" transform="matrix(1,0,0,1,528.200708591674,550.800354295934) translate(73.20500000000001 36)"/><path d="M482.04 925.6l-1.3-1.54 18-15.15h3.12zm122.64-103.2l-51.47 43.3h-3.1l53.3-44.82z"/><path d="M604.66 822.43l-1.2-1.43h2.9zM483 923.47l18.07-3 .32 1.96L480 926l6-17.1h2.1z"/><use xlink:href="#g" transform="matrix(1,0,0,1,453.4557150164627,865.7145219190093) translate(0.0049999999999954525 14.4)"/><use xlink:href="#h" transform="matrix(1,0,0,1,453.4557150164627,865.7145219190093) translate(8.604999999999997 36)"/><path d="M400 926.5h160v40H400z" stroke="#000" fill="#fff"/><use xlink:href="#i" transform="matrix(1,0,0,1,405,931.5000000000778) translate(21.4 18.6)"/><path d="M648 926.5h160v40H648z" stroke="#000" fill="#fff"/><use xlink:href="#i" transform="matrix(1,0,0,1,653,931.5000000000778) translate(21.4 18.6)"/><path d="M727.26 924.06l-1.3 1.52-19.67-16.77h3.07zM658.7 865.6h-3.1l-50.7-43.2 1.3-1.5z"/><path d="M604.93 822.43l-1.67-1.43h2.9zM728 926l-21.37-3.7.34-1.98 18.04 3.13L720 908.8h2.12z"/><use xlink:href="#j" transform="matrix(1,0,0,1,612.939376798916,865.6123139550964) translate(0.0049999999999954525 14.4)"/><use xlink:href="#k" transform="matrix(1,0,0,1,612.939376798916,865.6123139550964) translate(26.12999999999999 36)"/><path d="M879 287.67c0-2.76 2.24-5 5-5h150c2.76 0 5 2.24 5 5v110c0 2.76-2.24 5-5 5H884c-2.76 0-5-2.24-5-5z" stroke="#000" stroke-width="2" fill="#666"/><use xlink:href="#l" transform="matrix(1,0,0,1,887,290.66666666666663) translate(41.025 55.6)"/><path d="M1180 785c0-2.76 2.24-5 5-5h150c2.76 0 5 2.24 5 5v30c0 2.76-2.24 5-5 5h-150c-2.76 0-5-2.24-5-5z" stroke="#000" stroke-opacity="0" stroke-width="2" fill="#fff" fill-opacity="0"/><use xlink:href="#m" transform="matrix(1,0,0,1,1185,785) translate(0 22.799999999999997)"/><path d="M1180 407.67c0-2.76 2.24-5 5-5h150c2.76 0 5 2.24 5 5v110c0 2.76-2.24 5-5 5h-150c-2.76 0-5-2.24-5-5z" stroke="#000" stroke-width="2" fill="#b2b2b2"/><use xlink:href="#n" transform="matrix(1,0,0,1,1188,410.6666666666666) translate(51 44.8)"/><use xlink:href="#o" transform="matrix(1,0,0,1,1188,410.6666666666666) translate(38.525 66.4)"/><path d="M1180 265c0-2.76 2.24-5 5-5h150c2.76 0 5 2.24 5 5v110c0 2.76-2.24 5-5 5h-150c-2.76 0-5-2.24-5-5z" stroke="#000" stroke-width="2" fill="#666"/><use xlink:href="#p" transform="matrix(1,0,0,1,1188,268) translate(27.049999999999997 55.6)"/><use xlink:href="#q" transform="matrix(1,0,0,1,1188,268) translate(72.05 55.6)"/><path d="M1160 65c0-2.76 2.24-5 5-5h190c2.76 0 5 2.24 5 5v50c0 2.76-2.24 5-5 5h-190c-2.76 0-5-2.24-5-5z" stroke="#000" stroke-opacity="0" stroke-width="2" fill="#fff" fill-opacity="0"/><use xlink:href="#r" transform="matrix(1,0,0,1,1165,65) translate(0 28.6)"/><use xlink:href="#s" transform="matrix(1,0,0,1,1165,65) translate(72.80000000000001 28.6)"/><use xlink:href="#t" transform="matrix(1,0,0,1,1165,65) translate(143.70000000000002 28.6)"/><path d="M1180 122.33c0-2.76 2.24-5 5-5h150c2.76 0 5 2.24 5 5v110c0 2.76-2.24 5-5 5h-150c-2.76 0-5-2.24-5-5z" stroke="#000" stroke-width="2" fill="#fff"/><use xlink:href="#u" transform="matrix(1,0,0,1,1188,125.33333333333334) translate(33.599999999999994 44.8)"/><use xlink:href="#v" transform="matrix(1,0,0,1,1188,125.33333333333334) translate(5.099999999999994 66.4)"/><use xlink:href="#w" transform="matrix(1,0,0,1,1188,125.33333333333334) translate(92 66.4)"/><path d="M1181 784.8h117.18M1181.03 784.8H1180M1280.82 794.98l17.22-10.18-17.22-10.18" stroke="#000" stroke-width="2" fill="none"/><path d="M1180 596.85c0-2.76 1.94-6.12 4.32-7.5l71.36-41.5c2.38-1.4 6.26-1.4 8.64 0l71.36 41.5c2.38 1.38 4.32 4.74 4.32 7.5v63.48c0 2.76-2.24 5-5 5h-150c-2.76 0-5-2.24-5-5z" stroke="#000" stroke-width="2" fill="#fff"/><use xlink:href="#x" transform="matrix(1,0,0,1,1180,545.3333333333333) translate(60.025 52.8)"/><use xlink:href="#y" transform="matrix(1,0,0,1,1180,545.3333333333333) translate(56.5 74.4)"/><path d="M690.95 374.93l-64 10.7-.33-1.98 64.33-10.75zm185.42-30.98l-63.52 10.6v-2l63.2-10.57z"/><path d="M626.98 385.62l-1.18.2v-2.03l.85-.15zM878 342.67l-16.6 13.96-1.28-1.53 14-11.8-17.07-6.58.72-1.87z"/><use xlink:href="#a" transform="matrix(1,0,0,1,690.950354295837,342.1336876291897) translate(39.455000000000005 14.4)"/><use xlink:href="#z" transform="matrix(1,0,0,1,690.950354295837,342.1336876291897) translate(0.005000000000002558 36)"/><use xlink:href="#A" transform="matrix(1,0,0,1,690.950354295837,342.1336876291897) translate(84.905 36)"/><path d="M1180 860c0-2.76 2.24-5 5-5h150c2.76 0 5 2.24 5 5v30c0 2.76-2.24 5-5 5h-150c-2.76 0-5-2.24-5-5z" stroke="#000" stroke-opacity="0" stroke-width="2" fill="#fff" fill-opacity="0"/><use xlink:href="#B" transform="matrix(1,0,0,1,1185,859.9999999999968) translate(0 22.799999999999997)"/><path d="M1181 855.8h100.5M1181.03 855.8H1180" stroke="#000" stroke-width="2" fill="none"/><path d="M1296.76 855.8l-14.26 4.64v-9.27z" stroke="#000" stroke-width="2" fill="#fff"/><path d="M183.37 480.5l-.5-1.93 73.73-19.4h7.86zm279.72-73.55l-116.5 30.63h-7.85l123.83-32.56z"/><path d="M463.8 406.77l-.74.2-.5-1.94 1.24-.33zM198.03 465.98L185.15 479l17.62 5-.55 1.93-20.87-5.93 15.25-15.43z"/><use xlink:href="#C" transform="matrix(1,0,0,1,219.13097562947237,437.5807820790695) translate(0 14.4)"/><use xlink:href="#D" transform="matrix(1,0,0,1,219.13097562947237,437.5807820790695) translate(34 14.4)"/><use xlink:href="#E" transform="matrix(1,0,0,1,219.13097562947237,437.5807820790695) translate(91.95 14.4)"/><use xlink:href="#f" transform="matrix(1,0,0,1,219.13097562947237,437.5807820790695) translate(144.95 14.4)"/><path d="M20.35 145c0-2.76 2.24-5 5-5h150c2.77 0 5 2.24 5 5v110c0 2.76-2.23 5-5 5h-150c-2.76 0-5-2.24-5-5z" stroke="#000" stroke-width="2" fill="#b2b2b2"/><use xlink:href="#F" transform="matrix(1,0,0,1,28.354295837023926,148) translate(0.6499999999999915 44.8)"/><use xlink:href="#G" transform="matrix(1,0,0,1,28.354295837023926,148) translate(68.5 44.8)"/><use xlink:href="#H" transform="matrix(1,0,0,1,28.354295837023926,148) translate(42.025 66.4)"/><path d="M20.35 285c0-2.76 2.24-5 5-5h150c2.77 0 5 2.24 5 5v110c0 2.76-2.23 5-5 5h-150c-2.76 0-5-2.24-5-5z" stroke="#000" stroke-width="2" fill="#b2b2b2"/><use xlink:href="#I" transform="matrix(1,0,0,1,28.354295837023926,288.00000000003877) translate(53.525 44.8)"/><use xlink:href="#J" transform="matrix(1,0,0,1,28.354295837023926,288.00000000003877) translate(13.649999999999999 66.4)"/><path d="M463.4 354.55l-.96 1.75-122.37-67.55h4.14zm-158.32-87.4h-4.14l-118.48-65.4.97-1.75z"/><path d="M463.8 354.77v2.28l-1.38-.76.97-1.76zM203.1 201.35l-18.3.55 9.3 15.77-1.74 1.02-11-18.7 21.68-.64z"/><use xlink:href="#C" transform="matrix(1,0,0,1,263.102502214349,267.15412866477) translate(0 14.4)"/><use xlink:href="#K" transform="matrix(1,0,0,1,263.102502214349,267.15412866477) translate(34 14.4)"/><use xlink:href="#f" transform="matrix(1,0,0,1,263.102502214349,267.15412866477) translate(98.95 14.4)"/><path d="M20.35 425c0-2.76 2.24-5 5-5h150c2.77 0 5 2.24 5 5v110c0 2.76-2.23 5-5 5h-150c-2.76 0-5-2.24-5-5z" stroke="#000" stroke-width="2" fill="#b2b2b2"/><use xlink:href="#L" transform="matrix(1,0,0,1,28.354295837023926,428.00000000007753) translate(15.099999999999994 44.8)"/><use xlink:href="#M" transform="matrix(1,0,0,1,28.354295837023926,428.00000000007753) translate(72.94999999999999 44.8)"/><use xlink:href="#N" transform="matrix(1,0,0,1,28.354295837023926,428.00000000007753) translate(46.5 66.4)"/><path d="M462.97 383.66l-.3 1.97-93.38-14.8v-2.03zM230.54 346.8v2L183 341.28l.3-1.97z"/><path d="M463.8 383.8v2l-1.17-.17.3-1.98zM202.26 333.88l-17.03 6.74 14.1 11.67-1.27 1.53-16.7-13.83 20.16-7.98z"/><use xlink:href="#C" transform="matrix(1,0,0,1,230.54319007498952,337.20620972826515) translate(26.429999999999993 14.4)"/><use xlink:href="#O" transform="matrix(1,0,0,1,230.54319007498952,337.20620972826515) translate(60.42999999999999 14.4)"/><use xlink:href="#P" transform="matrix(1,0,0,1,230.54319007498952,337.20620972826515) translate(0.0049999999999954525 36)"/><use xlink:href="#f" transform="matrix(1,0,0,1,230.54319007498952,337.20620972826515) translate(118.755 36)"/><path d="M421.63 697.72l-1.84-.78 18.87-44.63h2.17zm106.02-250.6l-68.53 162h-2.17l68.86-162.8z"/><path d="M527.64 447.13l-1.84-.77.24-.56h2.17zM421.53 695.38l14.72-10.88 1.2 1.6L420 699l-2.9-21.5 2-.26z"/><use xlink:href="#Q" transform="matrix(1,0,0,1,373.9428567759337,609.1078399810391) translate(57.455 14.4)"/><use xlink:href="#R" transform="matrix(1,0,0,1,373.9428567759337,609.1078399810391) translate(0.0049999999999954525 36)"/><use xlink:href="#A" transform="matrix(1,0,0,1,373.9428567759337,609.1078399810391) translate(112.905 36)"/><path d="M340 705c0-2.76 2.24-5 5-5h150c2.76 0 5 2.24 5 5v110c0 2.76-2.24 5-5 5H345c-2.76 0-5-2.24-5-5z" stroke="#000" stroke-width="2" fill="#fff"/><use xlink:href="#Q" transform="matrix(1,0,0,1,348,708.0000000001551) translate(54.5 44.8)"/><use xlink:href="#S" transform="matrix(1,0,0,1,348,708.0000000001551) translate(32.55 66.4)"/><path d="M524.8 705c0-2.76 2.24-5 5-5h150c2.76 0 5 2.24 5 5v110c0 2.76-2.24 5-5 5h-150c-2.76 0-5-2.24-5-5z" stroke="#000" stroke-width="2" fill="#fff"/><use xlink:href="#d" transform="matrix(1,0,0,1,532.800708591674,708.0000000001551) translate(52.55 44.8)"/><use xlink:href="#T" transform="matrix(1,0,0,1,532.800708591674,708.0000000001551) translate(15.599999999999994 66.4)"/><path d="M789.15 696.97l-1.5 1.33-51.74-58.8h2.67zm-69.6-79.06h-2.65L566.67 447.2l1.5-1.3z"/><path d="M568.18 445.9l-1.5 1.33-1.26-1.43h2.67zM789.6 699l-20.62-6.72.62-1.9 17.4 5.67-3.4-18 1.95-.36z"/><use xlink:href="#U" transform="matrix(1,0,0,1,673.7613830811605,617.9082552486449) translate(0.010000000000005116 14.4)"/><use xlink:href="#f" transform="matrix(1,0,0,1,673.7613830811605,617.9082552486449) translate(87.96000000000001 14.4)"/><path d="M709.6 705c0-2.76 2.24-5 5-5h150c2.76 0 5 2.24 5 5v110c0 2.76-2.24 5-5 5h-150c-2.76 0-5-2.24-5-5z" stroke="#000" stroke-width="2" fill="#fff"/><use xlink:href="#V" transform="matrix(1,0,0,1,717.6014171833481,708.0000000001551) translate(54.5 44.8)"/><use xlink:href="#W" transform="matrix(1,0,0,1,717.6014171833481,708.0000000001551) translate(31.049999999999997 66.4)"/><path d="M879 430.33c0-2.76 2.24-5 5-5h150c2.76 0 5 2.24 5 5v110c0 2.76-2.24 5-5 5H884c-2.76 0-5-2.24-5-5z" stroke="#000" stroke-width="2" fill="#666"/><use xlink:href="#X" transform="matrix(1,0,0,1,887,433.33333333333326) translate(46.075 55.6)"/><path d="M876.55 483.84l-.58 1.92-92.26-28.3h6.83zM720.1 435.87h-6.83l-86.8-26.62.58-1.92z"/><path d="M627.07 407.34l-.58 1.9-.7-.2v-2.1zM878 485.33l-21.1 5.1-.46-1.96 17.8-4.3-12.33-13.52 1.5-1.35z"/><use xlink:href="#C" transform="matrix(1,0,0,1,688.9753542958371,435.8655333901773) translate(0.010000000000005116 14.4)"/><use xlink:href="#Y" transform="matrix(1,0,0,1,688.9753542958371,435.8655333901773) translate(34.010000000000005 14.4)"/><use xlink:href="#A" transform="matrix(1,0,0,1,688.9753542958371,435.8655333901773) translate(88.86 14.4)"/><path d="M20.35 565c0-2.76 2.24-5 5-5h150c2.77 0 5 2.24 5 5v110c0 2.76-2.23 5-5 5h-150c-2.76 0-5-2.24-5-5z" stroke="#000" stroke-width="2" fill="#b2b2b2"/><g><use xlink:href="#Z" transform="matrix(1,0,0,1,28.354295837023926,568.0000000001163) translate(15.049999999999997 55.6)"/><use xlink:href="#aa" transform="matrix(1,0,0,1,28.354295837023926,568.0000000001163) translate(78.05 55.6)"/></g><path d="M183.42 619.78l-1.14-1.64L286.2 546h3.5zm280.13-194.5l-142.74 99.1h-3.5l145.1-100.74z"/><path d="M463.8 425.1l-.27.2-1.14-1.65 1.4-.98zM192.2 601.12l-7.62 16.64 18.26-1.33.15 2-21.65 1.57 9.04-19.72z"/><g><use xlink:href="#C" transform="matrix(1,0,0,1,221.55380053076937,524.3870428035336) translate(0.0049999999999954525 14.4)"/><use xlink:href="#ab" transform="matrix(1,0,0,1,221.55380053076937,524.3870428035336) translate(34.004999999999995 14.4)"/><use xlink:href="#ac" transform="matrix(1,0,0,1,221.55380053076937,524.3870428035336) translate(95.005 14.4)"/><use xlink:href="#f" transform="matrix(1,0,0,1,221.55380053076937,524.3870428035336) translate(143.905 14.4)"/></g><path d="M562.4 45c0-2.76 2.24-5 5-5h150c2.76 0 5 2.24 5 5v110c0 2.76-2.24 5-5 5h-150c-2.76 0-5-2.24-5-5z" stroke="#000" stroke-width="2" fill="#fff"/><g><use xlink:href="#a" transform="matrix(1,0,0,1,570.400354295837,48) translate(50.5 44.8)"/><use xlink:href="#ad" transform="matrix(1,0,0,1,570.400354295837,48) translate(1.5749999999999886 66.4)"/></g><path d="M579.6 323.24l-1.85-.74 28.63-72.74h2.15zm63.06-160.18l-17.12 43.5h-2.15l17.4-44.23z"/><path d="M579.62 323.2l-.23.6h-2.16l.52-1.32zM645.84 182.42l-1.98.3-2.9-18.06-14.44 11.25-1.23-1.57L642.4 161z"/><g><use xlink:href="#a" transform="matrix(1,0,0,1,510.03773978573673,206.55663783556093) translate(84.42999999999999 14.4)"/><use xlink:href="#ae" transform="matrix(1,0,0,1,510.03773978573673,206.55663783556093) translate(0.0049999999999954525 36)"/><use xlink:href="#A" transform="matrix(1,0,0,1,510.03773978573673,206.55663783556093) translate(174.855 36)"/></g><path d="M879 220h160v40H879z" stroke="#000" fill="#fff"/><g><use xlink:href="#af" transform="matrix(1,0,0,1,884,225) translate(36.55 18.6)"/></g><path d="M681.73 326.94l-54.6 23.82-.8-1.83 55.4-24.17zm195.5-85.3l-54.65 23.85v-2.2l53.85-23.5z"/><path d="M627.14 350.75l-1.34.6v-2.2l.54-.23zM878.5 240l-12.7 17.6-1.62-1.18 10.72-14.85-18.17-2.24.24-1.98z"/><g><use xlink:href="#ag" transform="matrix(1,0,0,1,681.725354295837,262.7231788757765) translate(29.480000000000004 14.4)"/><use xlink:href="#ah" transform="matrix(1,0,0,1,681.725354295837,262.7231788757765) translate(91.38000000000001 14.4)"/><use xlink:href="#ai" transform="matrix(1,0,0,1,681.725354295837,262.7231788757765) translate(0.0049999999999954525 36)"/><use xlink:href="#ah" transform="matrix(1,0,0,1,681.725354295837,262.7231788757765) translate(120.855 36)"/><use xlink:href="#aj" transform="matrix(1,0,0,1,681.725354295837,262.7231788757765) translate(9.530000000000001 57.6)"/><use xlink:href="#f" transform="matrix(1,0,0,1,681.725354295837,262.7231788757765) translate(111.33000000000001 57.6)"/></g><path d="M879 571.87h160v40H879z" stroke="#000" fill="#fff"/><g><use xlink:href="#ak" transform="matrix(1,0,0,1,884,576.8659580749926) translate(41 18.6)"/></g><path d="M877.53 590.03l-1.1 1.67-76.7-50.3h3.64zM704.58 476.6h-3.65l-74.84-49.1 1.1-1.67z"/><path d="M627.2 425.84l-1.1 1.67-.3-.2v-2.38zM878.5 591.87l-21.67-1 .1-2 18.28.84-8.05-16.43 1.8-.88z"/><g><use xlink:href="#al" transform="matrix(1,0,0,1,691.225354295837,476.5908850857863) translate(3.9550000000000054 14.4)"/><use xlink:href="#ah" transform="matrix(1,0,0,1,691.225354295837,476.5908850857863) translate(97.905 14.4)"/><use xlink:href="#am" transform="matrix(1,0,0,1,691.225354295837,476.5908850857863) translate(7.955000000000005 36)"/><use xlink:href="#ah" transform="matrix(1,0,0,1,691.225354295837,476.5908850857863) translate(93.905 36)"/><use xlink:href="#an" transform="matrix(1,0,0,1,691.225354295837,476.5908850857863) translate(0.005000000000002558 57.6)"/><use xlink:href="#f" transform="matrix(1,0,0,1,691.225354295837,476.5908850857863) translate(101.85500000000002 57.6)"/></g><path d="M1180 690.33h160v40h-160z" stroke="#000" fill="#fff"/><g><use xlink:href="#ao" transform="matrix(1,0,0,1,1185,695.3333333331814) translate(50.575 18.6)"/></g><path d="M20.35 705c0-2.76 2.24-5 5-5h150c2.77 0 5 2.24 5 5v110c0 2.76-2.23 5-5 5h-150c-2.76 0-5-2.24-5-5z" stroke="#000" stroke-width="2" fill="#b2b2b2"/><g><use xlink:href="#F" transform="matrix(1,0,0,1,28.354295837023926,708.0000000001551) translate(10.099999999999994 44.8)"/><use xlink:href="#M" transform="matrix(1,0,0,1,28.354295837023926,708.0000000001551) translate(77.95 44.8)"/><use xlink:href="#ap" transform="matrix(1,0,0,1,28.354295837023926,708.0000000001551) translate(50.525 66.4)"/></g><path d="M183.37 759.52l-1.34-1.48 91.2-82.9h3zm343.7-312.3L299.98 653.54h-3l228.7-207.82z"/><path d="M527.8 446.54l-.76.7-1.35-1.5.75-.68zM189.66 739.86l-5.4 17.5 17.93-3.7.4 1.96-21.25 4.38 6.4-20.73z"/><g><use xlink:href="#C" transform="matrix(1,0,0,1,230.1654646411087,653.5493568606695) translate(0.005000000000002558 14.4)"/><use xlink:href="#aq" transform="matrix(1,0,0,1,230.1654646411087,653.5493568606695) translate(34.005 14.4)"/><use xlink:href="#A" transform="matrix(1,0,0,1,230.1654646411087,653.5493568606695) translate(75.905 14.4)"/></g><defs><path d="M135-143c-3-34-86-38-87 0 15 53 115 12 119 90S17 21 10-45l28-5c4 36 97 45 98 0-10-56-113-15-118-90-4-57 82-63 122-42 12 7 21 19 24 35" id="ar"/><path d="M100-194c62-1 85 37 85 99 1 63-27 99-86 99S16-35 15-95c0-66 28-99 85-99zM99-20c44 1 53-31 53-75 0-43-8-75-51-75s-53 32-53 75 10 74 51 75" id="as"/><path d="M141-36C126-15 110 5 73 4 37 3 15-17 15-53c-1-64 63-63 125-63 3-35-9-54-41-54-24 1-41 7-42 31l-33-3c5-37 33-52 76-52 45 0 72 20 72 64v82c-1 20 7 32 28 27v20c-31 9-61-2-59-35zM48-53c0 20 12 33 32 33 41-3 63-29 60-74-43 2-92-5-92 41" id="at"/><path d="M33-154v-36h34v36H33zM33 0v-36h34V0H33" id="au"/><g id="a"><use transform="matrix(0.05,0,0,0.05,0,0)" xlink:href="#ar"/><use transform="matrix(0.05,0,0,0.05,9,0)" xlink:href="#as"/><use transform="matrix(0.05,0,0,0.05,19,0)" xlink:href="#ar"/><use transform="matrix(0.05,0,0,0.05,28,0)" xlink:href="#at"/><use transform="matrix(0.05,0,0,0.05,38,0)" xlink:href="#au"/></g><path d="M185-189c-5-48-123-54-124 2 14 75 158 14 163 119 3 78-121 87-175 55-17-10-28-26-33-46l33-7c5 56 141 63 141-1 0-78-155-14-162-118-5-82 145-84 179-34 5 7 8 16 11 25" id="av"/><path d="M210-169c-67 3-38 105-44 169h-31v-121c0-29-5-50-35-48C34-165 62-65 56 0H25l-1-190h30c1 10-1 24 2 32 10-44 99-50 107 0 11-21 27-35 58-36 85-2 47 119 55 194h-31v-121c0-29-5-49-35-48" id="aw"/><path d="M115-194c55 1 70 41 70 98S169 2 115 4C84 4 66-9 55-30l1 105H24l-1-265h31l2 30c10-21 28-34 59-34zm-8 174c40 0 45-34 45-75s-6-73-45-74c-42 0-51 32-51 76 0 43 10 73 51 73" id="ax"/><path d="M24 0v-261h32V0H24" id="ay"/><path d="M24-231v-30h32v30H24zM24 0v-190h32V0H24" id="az"/><path d="M117-194c89-4 53 116 60 194h-32v-121c0-31-8-49-39-48C34-167 62-67 57 0H25l-1-190h30c1 10-1 24 2 32 11-22 29-35 61-36" id="aA"/><path d="M177-190C167-65 218 103 67 71c-23-6-38-20-44-43l32-5c15 47 100 32 89-28v-30C133-14 115 1 83 1 29 1 15-40 15-95c0-56 16-97 71-98 29-1 48 16 59 35 1-10 0-23 2-32h30zM94-22c36 0 50-32 50-73 0-42-14-75-50-75-39 0-46 34-46 75s6 73 46 73" id="aB"/><g id="b"><use transform="matrix(0.05,0,0,0.05,0,0)" xlink:href="#av"/><use transform="matrix(0.05,0,0,0.05,12,0)" xlink:href="#at"/><use transform="matrix(0.05,0,0,0.05,22,0)" xlink:href="#aw"/><use transform="matrix(0.05,0,0,0.05,36.95,0)" xlink:href="#ax"/><use transform="matrix(0.05,0,0,0.05,46.95,0)" xlink:href="#ay"/><use transform="matrix(0.05,0,0,0.05,50.900000000000006,0)" xlink:href="#az"/><use transform="matrix(0.05,0,0,0.05,54.85,0)" xlink:href="#aA"/><use transform="matrix(0.05,0,0,0.05,64.85000000000001,0)" xlink:href="#aB"/></g><path fill="#fff" d="M185-189c-5-48-123-54-124 2 14 75 158 14 163 119 3 78-121 87-175 55-17-10-28-26-33-46l33-7c5 56 141 63 141-1 0-78-155-14-162-118-5-82 145-84 179-34 5 7 8 16 11 25" id="aC"/><path fill="#fff" d="M84 4C-5 8 30-112 23-190h32v120c0 31 7 50 39 49 72-2 45-101 50-169h31l1 190h-30c-1-10 1-25-2-33-11 22-28 36-60 37" id="aD"/><path fill="#fff" d="M114-163C36-179 61-72 57 0H25l-1-190h30c1 12-1 29 2 39 6-27 23-49 58-41v29" id="aE"/><path fill="#fff" d="M108 0H70L1-190h34L89-25l56-165h34" id="aF"/><path fill="#fff" d="M100-194c63 0 86 42 84 106H49c0 40 14 67 53 68 26 1 43-12 49-29l28 8c-11 28-37 45-77 45C44 4 14-33 15-96c1-61 26-98 85-98zm52 81c6-60-76-77-97-28-3 7-6 17-6 28h103" id="aG"/><path fill="#fff" d="M179-190L93 31C79 59 56 82 12 73V49c39 6 53-20 64-50L1-190h34L92-34l54-156h33" id="aH"/><g id="c"><use transform="matrix(0.05,0,0,0.05,0,0)" xlink:href="#aC"/><use transform="matrix(0.05,0,0,0.05,12,0)" xlink:href="#aD"/><use transform="matrix(0.05,0,0,0.05,22,0)" xlink:href="#aE"/><use transform="matrix(0.05,0,0,0.05,27.950000000000003,0)" xlink:href="#aF"/><use transform="matrix(0.05,0,0,0.05,36.95,0)" xlink:href="#aG"/><use transform="matrix(0.05,0,0,0.05,46.95,0)" xlink:href="#aH"/></g><path d="M59-47c-2 24 18 29 38 22v24C64 9 27 4 27-40v-127H5v-23h24l9-43h21v43h35v23H59v120" id="aI"/><path d="M100-194c63 0 86 42 84 106H49c0 40 14 67 53 68 26 1 43-12 49-29l28 8c-11 28-37 45-77 45C44 4 14-33 15-96c1-61 26-98 85-98zm52 81c6-60-76-77-97-28-3 7-6 17-6 28h103" id="aJ"/><g id="d"><use transform="matrix(0.05,0,0,0.05,0,0)" xlink:href="#aI"/><use transform="matrix(0.05,0,0,0.05,5,0)" xlink:href="#az"/><use transform="matrix(0.05,0,0,0.05,8.95,0)" xlink:href="#aw"/><use transform="matrix(0.05,0,0,0.05,23.9,0)" xlink:href="#aJ"/><use transform="matrix(0.05,0,0,0.05,33.9,0)" xlink:href="#au"/></g><path d="M106-169C34-169 62-67 57 0H25v-261h32l-1 103c12-21 28-36 61-36 89 0 53 116 60 194h-32v-121c2-32-8-49-39-48" id="aK"/><path d="M127-220V0H93v-220H8v-28h204v28h-85" id="aL"/><g id="e"><use transform="matrix(0.05,0,0,0.05,0,0)" xlink:href="#aK"/><use transform="matrix(0.05,0,0,0.05,10,0)" xlink:href="#at"/><use transform="matrix(0.05,0,0,0.05,20,0)" xlink:href="#ar"/><use transform="matrix(0.05,0,0,0.05,29,0)" xlink:href="#aL"/><use transform="matrix(0.05,0,0,0.05,39.300000000000004,0)" xlink:href="#az"/><use transform="matrix(0.05,0,0,0.05,43.25000000000001,0)" xlink:href="#aw"/><use transform="matrix(0.05,0,0,0.05,58.20000000000002,0)" xlink:href="#aJ"/></g><path d="M26 75v-336h71v23H56V52h41v23H26" id="aM"/><path d="M27 0v-27h64v-190l-56 39v-29l58-41h29v221h61V0H27" id="aN"/><path d="M3 75V52h41v-290H3v-23h71V75H3" id="aO"/><g id="f"><use transform="matrix(0.05,0,0,0.05,0,0)" xlink:href="#aM"/><use transform="matrix(0.05,0,0,0.05,5,0)" xlink:href="#aN"/><use transform="matrix(0.05,0,0,0.05,15,0)" xlink:href="#aO"/></g><path d="M114-163C36-179 61-72 57 0H25l-1-190h30c1 12-1 29 2 39 6-27 23-49 58-41v29" id="aP"/><g id="g"><use transform="matrix(0.05,0,0,0.05,0,0)" xlink:href="#aI"/><use transform="matrix(0.05,0,0,0.05,5,0)" xlink:href="#az"/><use transform="matrix(0.05,0,0,0.05,8.95,0)" xlink:href="#aw"/><use transform="matrix(0.05,0,0,0.05,23.9,0)" xlink:href="#aJ"/><use transform="matrix(0.05,0,0,0.05,33.9,0)" xlink:href="#au"/><use transform="matrix(0.05,0,0,0.05,38.9,0)" xlink:href="#aK"/><use transform="matrix(0.05,0,0,0.05,48.9,0)" xlink:href="#at"/><use transform="matrix(0.05,0,0,0.05,58.900000000000006,0)" xlink:href="#ar"/><use transform="matrix(0.05,0,0,0.05,67.9,0)" xlink:href="#av"/><use transform="matrix(0.05,0,0,0.05,79.9,0)" xlink:href="#aI"/><use transform="matrix(0.05,0,0,0.05,84.9,0)" xlink:href="#at"/><use transform="matrix(0.05,0,0,0.05,94.9,0)" xlink:href="#aP"/><use transform="matrix(0.05,0,0,0.05,100.85000000000001,0)" xlink:href="#aI"/><use transform="matrix(0.05,0,0,0.05,105.85000000000001,0)" xlink:href="#aL"/><use transform="matrix(0.05,0,0,0.05,116.15,0)" xlink:href="#az"/><use transform="matrix(0.05,0,0,0.05,120.10000000000001,0)" xlink:href="#aw"/><use transform="matrix(0.05,0,0,0.05,135.05,0)" xlink:href="#aJ"/></g><path d="M44-68c0 29 11 47 38 47 30 0 42-19 51-41l28 9C148-21 126 4 82 4 31 4 10-29 12-85c3-77 74-140 146-93 12 8 15 23 18 40l-31 5c-1-22-13-36-36-36-52 0-65 49-65 101" id="aQ"/><path d="M30-147c31-64 166-65 159 27C183-49 158 1 86 4 9 8 1-88 30-147zM88-20c53 0 68-48 68-100 0-31-11-51-44-50-52 1-68 46-68 97 0 32 13 53 44 53" id="aR"/><path d="M248-111c6-24 9-61-24-58-72 9-57 108-77 169h-31l26-142c3-37-50-30-64-10C52-115 50-51 37 0H6l36-190h30c-1 10-6 24-4 32 13-43 101-52 105 5 13-22 29-41 61-41 90 0 28 129 23 194h-31" id="aS"/><path d="M111-194c62-3 86 47 72 106H45c-7 38 6 69 45 68 27-1 43-14 53-32l24 11C152-15 129 4 87 4 38 3 12-23 12-71c0-70 32-119 99-123zm44 81c14-66-71-72-95-28-4 8-8 17-11 28h106" id="aT"/><path d="M67-158c22-48 132-52 116 29L158 0h-32l25-140c3-38-53-32-70-12C52-117 51-52 38 0H6l36-190h30" id="aU"/><path d="M51-54c-9 22 5 41 31 30L79-1C43 14 10-4 19-52l22-115H19l5-23h22l19-43h21l-9 43h35l-4 23H73" id="aV"/><g id="h"><use transform="matrix(0.05,0,0,0.05,0,0)" xlink:href="#aQ"/><use transform="matrix(0.05,0,0,0.05,9,0)" xlink:href="#aR"/><use transform="matrix(0.05,0,0,0.05,19,0)" xlink:href="#aS"/><use transform="matrix(0.05,0,0,0.05,33.95,0)" xlink:href="#aS"/><use transform="matrix(0.05,0,0,0.05,48.900000000000006,0)" xlink:href="#aT"/><use transform="matrix(0.05,0,0,0.05,58.900000000000006,0)" xlink:href="#aU"/><use transform="matrix(0.05,0,0,0.05,68.9,0)" xlink:href="#aQ"/><use transform="matrix(0.05,0,0,0.05,77.9,0)" xlink:href="#aT"/><use transform="matrix(0.05,0,0,0.05,87.9,0)" xlink:href="#aS"/><use transform="matrix(0.05,0,0,0.05,102.85000000000001,0)" xlink:href="#aT"/><use transform="matrix(0.05,0,0,0.05,112.85000000000001,0)" xlink:href="#aU"/><use transform="matrix(0.05,0,0,0.05,122.85000000000001,0)" xlink:href="#aV"/></g><path d="M141 0L90-78 38 0H4l68-98-65-92h35l48 74 47-74h35l-64 92 68 98h-35" id="aW"/><path d="M85-194c31 0 48 13 60 33l-1-100h32l1 261h-30c-2-10 0-23-3-31C134-8 116 4 85 4 32 4 16-35 15-94c0-66 23-100 70-100zm9 24c-40 0-46 34-46 75 0 40 6 74 45 74 42 0 51-32 51-76 0-42-9-74-50-73" id="aX"/><g id="i"><use transform="matrix(0.05,0,0,0.05,0,0)" xlink:href="#aW"/><use transform="matrix(0.05,0,0,0.05,9,0)" xlink:href="#ar"/><use transform="matrix(0.05,0,0,0.05,18,0)" xlink:href="#aX"/><use transform="matrix(0.05,0,0,0.05,28,0)" xlink:href="#au"/><use transform="matrix(0.05,0,0,0.05,33,0)" xlink:href="#aX"/><use transform="matrix(0.05,0,0,0.05,43,0)" xlink:href="#at"/><use transform="matrix(0.05,0,0,0.05,53,0)" xlink:href="#aI"/><use transform="matrix(0.05,0,0,0.05,58,0)" xlink:href="#aJ"/><use transform="matrix(0.05,0,0,0.05,68,0)" xlink:href="#aL"/><use transform="matrix(0.05,0,0,0.05,78.3,0)" xlink:href="#az"/><use transform="matrix(0.05,0,0,0.05,82.25,0)" xlink:href="#aw"/><use transform="matrix(0.05,0,0,0.05,97.2,0)" xlink:href="#aJ"/></g><path d="M30 0v-248h187v28H63v79h144v27H63v87h162V0H30" id="aY"/><g id="j"><use transform="matrix(0.05,0,0,0.05,0,0)" xlink:href="#aI"/><use transform="matrix(0.05,0,0,0.05,5,0)" xlink:href="#az"/><use transform="matrix(0.05,0,0,0.05,8.95,0)" xlink:href="#aw"/><use transform="matrix(0.05,0,0,0.05,23.9,0)" xlink:href="#aJ"/><use transform="matrix(0.05,0,0,0.05,33.9,0)" xlink:href="#au"/><use transform="matrix(0.05,0,0,0.05,38.9,0)" xlink:href="#aK"/><use transform="matrix(0.05,0,0,0.05,48.9,0)" xlink:href="#at"/><use transform="matrix(0.05,0,0,0.05,58.900000000000006,0)" xlink:href="#ar"/><use transform="matrix(0.05,0,0,0.05,67.9,0)" xlink:href="#aY"/><use transform="matrix(0.05,0,0,0.05,79.9,0)" xlink:href="#aA"/><use transform="matrix(0.05,0,0,0.05,89.9,0)" xlink:href="#aX"/><use transform="matrix(0.05,0,0,0.05,99.9,0)" xlink:href="#aL"/><use transform="matrix(0.05,0,0,0.05,110.2,0)" xlink:href="#az"/><use transform="matrix(0.05,0,0,0.05,114.15,0)" xlink:href="#aw"/><use transform="matrix(0.05,0,0,0.05,129.1,0)" xlink:href="#aJ"/></g><path d="M67-162c32-53 139-36 121 50C175-51 163 2 97 4 68 4 52-11 42-31 38 6 28 39 22 75H-9l50-265h29c-1 10 0 20-3 28zm89 36c0-26-10-43-35-43-54 0-67 50-69 103-1 29 14 45 42 46 53 0 62-58 62-106" id="aZ"/><path d="M6 0l50-261h32L37 0H6" id="ba"/><path d="M50-231l6-30h32l-6 30H50zM6 0l37-190h31L37 0H6" id="bb"/><g id="k"><use transform="matrix(0.05,0,0,0.05,0,0)" xlink:href="#aQ"/><use transform="matrix(0.05,0,0,0.05,9,0)" xlink:href="#aR"/><use transform="matrix(0.05,0,0,0.05,19,0)" xlink:href="#aS"/><use transform="matrix(0.05,0,0,0.05,33.95,0)" xlink:href="#aZ"/><use transform="matrix(0.05,0,0,0.05,43.95,0)" xlink:href="#ba"/><use transform="matrix(0.05,0,0,0.05,47.900000000000006,0)" xlink:href="#aT"/><use transform="matrix(0.05,0,0,0.05,57.900000000000006,0)" xlink:href="#aV"/><use transform="matrix(0.05,0,0,0.05,62.900000000000006,0)" xlink:href="#bb"/><use transform="matrix(0.05,0,0,0.05,66.85000000000001,0)" xlink:href="#aR"/><use transform="matrix(0.05,0,0,0.05,76.85000000000001,0)" xlink:href="#aU"/></g><path fill="#fff" d="M30-248c118-7 216 8 213 122C240-48 200 0 122 0H30v-248zM63-27c89 8 146-16 146-99s-60-101-146-95v194" id="bc"/><path fill="#fff" d="M141-36C126-15 110 5 73 4 37 3 15-17 15-53c-1-64 63-63 125-63 3-35-9-54-41-54-24 1-41 7-42 31l-33-3c5-37 33-52 76-52 45 0 72 20 72 64v82c-1 20 7 32 28 27v20c-31 9-61-2-59-35zM48-53c0 20 12 33 32 33 41-3 63-29 60-74-43 2-92-5-92 41" id="bd"/><path fill="#fff" d="M59-47c-2 24 18 29 38 22v24C64 9 27 4 27-40v-127H5v-23h24l9-43h21v43h35v23H59v120" id="be"/><path fill="#fff" d="M135-143c-3-34-86-38-87 0 15 53 115 12 119 90S17 21 10-45l28-5c4 36 97 45 98 0-10-56-113-15-118-90-4-57 82-63 122-42 12 7 21 19 24 35" id="bf"/><g id="l"><use transform="matrix(0.05,0,0,0.05,0,0)" xlink:href="#bc"/><use transform="matrix(0.05,0,0,0.05,12.950000000000001,0)" xlink:href="#bd"/><use transform="matrix(0.05,0,0,0.05,22.950000000000003,0)" xlink:href="#be"/><use transform="matrix(0.05,0,0,0.05,27.950000000000003,0)" xlink:href="#bd"/><use transform="matrix(0.05,0,0,0.05,37.95,0)" xlink:href="#bf"/><use transform="matrix(0.05,0,0,0.05,46.95,0)" xlink:href="#aG"/><use transform="matrix(0.05,0,0,0.05,56.95,0)" xlink:href="#be"/></g><path d="M101-234c-31-9-42 10-38 44h38v23H63V0H32v-167H5v-23h27c-7-52 17-82 69-68v24" id="bg"/><path d="M179-190L93 31C79 59 56 82 12 73V49c39 6 53-20 64-50L1-190h34L92-34l54-156h33" id="bh"/><g id="m"><use transform="matrix(0.05,0,0,0.05,0,0)" xlink:href="#aP"/><use transform="matrix(0.05,0,0,0.05,5.95,0)" xlink:href="#aX"/><use transform="matrix(0.05,0,0,0.05,15.949999999999998,0)" xlink:href="#bg"/><use transform="matrix(0.05,0,0,0.05,20.95,0)" xlink:href="#au"/><use transform="matrix(0.05,0,0,0.05,25.950000000000003,0)" xlink:href="#ax"/><use transform="matrix(0.05,0,0,0.05,35.95,0)" xlink:href="#aP"/><use transform="matrix(0.05,0,0,0.05,41.900000000000006,0)" xlink:href="#as"/><use transform="matrix(0.05,0,0,0.05,51.900000000000006,0)" xlink:href="#ax"/><use transform="matrix(0.05,0,0,0.05,61.900000000000006,0)" xlink:href="#aJ"/><use transform="matrix(0.05,0,0,0.05,71.9,0)" xlink:href="#aP"/><use transform="matrix(0.05,0,0,0.05,77.85000000000001,0)" xlink:href="#aI"/><use transform="matrix(0.05,0,0,0.05,82.85000000000001,0)" xlink:href="#bh"/></g><path d="M143 0L79-87 56-68V0H24v-261h32v163l83-92h37l-77 82L181 0h-38" id="bi"/><g id="n"><use transform="matrix(0.05,0,0,0.05,0,0)" xlink:href="#ar"/><use transform="matrix(0.05,0,0,0.05,9,0)" xlink:href="#bi"/><use transform="matrix(0.05,0,0,0.05,18,0)" xlink:href="#as"/><use transform="matrix(0.05,0,0,0.05,28,0)" xlink:href="#ar"/><use transform="matrix(0.05,0,0,0.05,37,0)" xlink:href="#au"/></g><path d="M212-179c-10-28-35-45-73-45-59 0-87 40-87 99 0 60 29 101 89 101 43 0 62-24 78-52l27 14C228-24 195 4 139 4 59 4 22-46 18-125c-6-104 99-153 187-111 19 9 31 26 39 46" id="bj"/><path d="M96-169c-40 0-48 33-48 73s9 75 48 75c24 0 41-14 43-38l32 2c-6 37-31 61-74 61-59 0-76-41-82-99-10-93 101-131 147-64 4 7 5 14 7 22l-32 3c-4-21-16-35-41-35" id="bk"/><g id="o"><use transform="matrix(0.05,0,0,0.05,0,0)" xlink:href="#bj"/><use transform="matrix(0.05,0,0,0.05,12.950000000000001,0)" xlink:href="#as"/><use transform="matrix(0.05,0,0,0.05,22.950000000000003,0)" xlink:href="#aA"/><use transform="matrix(0.05,0,0,0.05,32.95,0)" xlink:href="#bk"/><use transform="matrix(0.05,0,0,0.05,41.95,0)" xlink:href="#aJ"/><use transform="matrix(0.05,0,0,0.05,51.95,0)" xlink:href="#ax"/><use transform="matrix(0.05,0,0,0.05,61.95,0)" xlink:href="#aI"/></g><path fill="#fff" d="M143 4C61 4 22-44 18-125c-5-107 100-154 193-111 17 8 29 25 37 43l-32 9c-13-25-37-40-76-40-61 0-88 39-88 99 0 61 29 100 91 101 35 0 62-11 79-27v-45h-74v-28h105v86C228-13 192 4 143 4" id="bl"/><path fill="#fff" d="M140-251c81 0 123 46 123 126C263-53 228-8 163 1c7 30 30 48 69 40v23c-55 16-95-15-103-61C56-3 17-48 17-125c0-80 42-126 123-126zm0 227c63 0 89-41 89-101s-29-99-89-99c-61 0-89 39-89 99S79-25 140-24" id="bm"/><g id="p"><use transform="matrix(0.05,0,0,0.05,0,0)" xlink:href="#bl"/><use transform="matrix(0.05,0,0,0.05,14,0)" xlink:href="#aC"/><use transform="matrix(0.05,0,0,0.05,26,0)" xlink:href="#bm"/></g><path fill="#fff" d="M212-179c-10-28-35-45-73-45-59 0-87 40-87 99 0 60 29 101 89 101 43 0 62-24 78-52l27 14C228-24 195 4 139 4 59 4 22-46 18-125c-6-104 99-153 187-111 19 9 31 26 39 46" id="bn"/><path fill="#fff" d="M24 0v-261h32V0H24" id="bo"/><g id="q"><use transform="matrix(0.05,0,0,0.05,0,0)" xlink:href="#bn"/><use transform="matrix(0.05,0,0,0.05,12.950000000000001,0)" xlink:href="#bo"/><use transform="matrix(0.05,0,0,0.05,16.900000000000002,0)" xlink:href="#bd"/><use transform="matrix(0.05,0,0,0.05,26.900000000000002,0)" xlink:href="#bf"/><use transform="matrix(0.05,0,0,0.05,35.900000000000006,0)" xlink:href="#bf"/></g><path d="M30-248c118-7 216 8 213 122C240-48 200 0 122 0H30v-248zM63-27c89 8 146-16 146-99s-60-101-146-95v194" id="bp"/><g id="r"><use transform="matrix(0.05,0,0,0.05,0,0)" xlink:href="#bp"/><use transform="matrix(0.05,0,0,0.05,12.950000000000001,0)" xlink:href="#az"/><use transform="matrix(0.05,0,0,0.05,16.900000000000002,0)" xlink:href="#at"/><use transform="matrix(0.05,0,0,0.05,26.900000000000002,0)" xlink:href="#aB"/><use transform="matrix(0.05,0,0,0.05,36.900000000000006,0)" xlink:href="#aP"/><use transform="matrix(0.05,0,0,0.05,42.85000000000001,0)" xlink:href="#at"/><use transform="matrix(0.05,0,0,0.05,52.85,0)" xlink:href="#aw"/><path d="M-.9 1.25h74.6v1.32H-.9z"/></g><g id="s"><use transform="matrix(0.05,0,0,0.05,0,0)" xlink:href="#aY"/><use transform="matrix(0.05,0,0,0.05,12,0)" xlink:href="#ay"/><use transform="matrix(0.05,0,0,0.05,15.949999999999998,0)" xlink:href="#aJ"/><use transform="matrix(0.05,0,0,0.05,25.950000000000003,0)" xlink:href="#aw"/><use transform="matrix(0.05,0,0,0.05,40.9,0)" xlink:href="#aJ"/><use transform="matrix(0.05,0,0,0.05,50.9,0)" xlink:href="#aA"/><use transform="matrix(0.05,0,0,0.05,60.900000000000006,0)" xlink:href="#aI"/><path d="M-.9 1.25h72.7v1.32H-.9z"/></g><path d="M194 0L95-120 63-95V0H30v-248h33v124l119-124h40L117-140 236 0h-42" id="bq"/><g id="t"><use transform="matrix(0.05,0,0,0.05,0,0)" xlink:href="#bq"/><use transform="matrix(0.05,0,0,0.05,12,0)" xlink:href="#aJ"/><use transform="matrix(0.05,0,0,0.05,22,0)" xlink:href="#bh"/><path d="M-.9 1.25h32.8v1.32H-.9z"/></g><path d="M206 0h-36l-40-164L89 0H53L-1-190h32L70-26l43-164h34l41 164 42-164h31" id="br"/><g id="u"><use transform="matrix(0.05,0,0,0.05,0,0)" xlink:href="#as"/><use transform="matrix(0.05,0,0,0.05,10,0)" xlink:href="#br"/><use transform="matrix(0.05,0,0,0.05,22.950000000000003,0)" xlink:href="#ay"/><use transform="matrix(0.05,0,0,0.05,26.900000000000002,0)" xlink:href="#au"/><use transform="matrix(0.05,0,0,0.05,31.900000000000002,0)" xlink:href="#bj"/><use transform="matrix(0.05,0,0,0.05,44.85,0)" xlink:href="#ay"/><use transform="matrix(0.05,0,0,0.05,48.800000000000004,0)" xlink:href="#at"/><use transform="matrix(0.05,0,0,0.05,58.800000000000004,0)" xlink:href="#ar"/><use transform="matrix(0.05,0,0,0.05,67.80000000000001,0)" xlink:href="#ar"/></g><path d="M87 75C49 33 22-17 22-94c0-76 28-126 65-167h31c-38 41-64 92-64 168S80 34 118 75H87" id="bs"/><path d="M16-82v-28h88v28H16" id="bt"/><path d="M143 4C61 4 22-44 18-125c-5-107 100-154 193-111 17 8 29 25 37 43l-32 9c-13-25-37-40-76-40-61 0-88 39-88 99 0 61 29 100 91 101 35 0 62-11 79-27v-45h-74v-28h105v86C228-13 192 4 143 4" id="bu"/><path d="M140-251c81 0 123 46 123 126C263-53 228-8 163 1c7 30 30 48 69 40v23c-55 16-95-15-103-61C56-3 17-48 17-125c0-80 42-126 123-126zm0 227c63 0 89-41 89-101s-29-99-89-99c-61 0-89 39-89 99S79-25 140-24" id="bv"/><g id="v"><use transform="matrix(0.05,0,0,0.05,0,0)" xlink:href="#bs"/><use transform="matrix(0.05,0,0,0.05,5.95,0)" xlink:href="#aA"/><use transform="matrix(0.05,0,0,0.05,15.949999999999998,0)" xlink:href="#as"/><use transform="matrix(0.05,0,0,0.05,25.950000000000003,0)" xlink:href="#aA"/><use transform="matrix(0.05,0,0,0.05,35.95,0)" xlink:href="#bt"/><use transform="matrix(0.05,0,0,0.05,41.900000000000006,0)" xlink:href="#bu"/><use transform="matrix(0.05,0,0,0.05,55.900000000000006,0)" xlink:href="#av"/><use transform="matrix(0.05,0,0,0.05,67.9,0)" xlink:href="#bv"/></g><path d="M33-261c38 41 65 92 65 168S71 34 33 75H2C39 34 66-17 66-93S39-220 2-261h31" id="bw"/><g id="w"><use transform="matrix(0.05,0,0,0.05,0,0)" xlink:href="#bk"/><use transform="matrix(0.05,0,0,0.05,9,0)" xlink:href="#ay"/><use transform="matrix(0.05,0,0,0.05,12.949999999999998,0)" xlink:href="#at"/><use transform="matrix(0.05,0,0,0.05,22.95,0)" xlink:href="#ar"/><use transform="matrix(0.05,0,0,0.05,31.950000000000003,0)" xlink:href="#ar"/><use transform="matrix(0.05,0,0,0.05,40.95,0)" xlink:href="#bw"/></g><path d="M108 0H70L1-190h34L89-25l56-165h34" id="bx"/><g id="x"><use transform="matrix(0.05,0,0,0.05,0,0)" xlink:href="#ax"/><use transform="matrix(0.05,0,0,0.05,10,0)" xlink:href="#aP"/><use transform="matrix(0.05,0,0,0.05,15.949999999999998,0)" xlink:href="#as"/><use transform="matrix(0.05,0,0,0.05,25.950000000000003,0)" xlink:href="#bx"/><use transform="matrix(0.05,0,0,0.05,34.95,0)" xlink:href="#au"/></g><path d="M205 0l-28-72H64L36 0H1l101-248h38L239 0h-34zm-38-99l-47-123c-12 45-31 82-46 123h93" id="by"/><g id="y"><use transform="matrix(0.05,0,0,0.05,0,0)" xlink:href="#by"/><use transform="matrix(0.05,0,0,0.05,12,0)" xlink:href="#aB"/><use transform="matrix(0.05,0,0,0.05,22,0)" xlink:href="#aJ"/><use transform="matrix(0.05,0,0,0.05,32,0)" xlink:href="#aA"/><use transform="matrix(0.05,0,0,0.05,42,0)" xlink:href="#aI"/></g><path d="M233-177c-1 41-23 64-60 70L243 0h-38l-65-103H63V0H30v-248c88 3 205-21 203 71zM63-129c60-2 137 13 137-47 0-61-80-42-137-45v92" id="bz"/><path d="M84 4C-5 8 30-112 23-190h32v120c0 31 7 50 39 49 72-2 45-101 50-169h31l1 190h-30c-1-10 1-25-2-33-11 22-28 36-60 37" id="bA"/><g id="z"><use transform="matrix(0.05,0,0,0.05,0,0)" xlink:href="#aK"/><use transform="matrix(0.05,0,0,0.05,10,0)" xlink:href="#at"/><use transform="matrix(0.05,0,0,0.05,20,0)" xlink:href="#ar"/><use transform="matrix(0.05,0,0,0.05,29,0)" xlink:href="#bz"/><use transform="matrix(0.05,0,0,0.05,41.95,0)" xlink:href="#aJ"/><use transform="matrix(0.05,0,0,0.05,51.95,0)" xlink:href="#ar"/><use transform="matrix(0.05,0,0,0.05,60.95,0)" xlink:href="#bA"/><use transform="matrix(0.05,0,0,0.05,70.95,0)" xlink:href="#ay"/><use transform="matrix(0.05,0,0,0.05,74.9,0)" xlink:href="#aI"/></g><path d="M101-251c68 0 85 55 85 127S166 4 100 4C33 4 14-52 14-124c0-73 17-127 87-127zm-1 229c47 0 54-49 54-102s-4-102-53-102c-51 0-55 48-55 102 0 53 5 102 54 102" id="bB"/><path d="M33 0v-38h34V0H33" id="bC"/><path d="M80-196l47-18 7 23-49 13 32 44-20 13-27-46-27 45-21-12 33-44-49-13 8-23 47 19-2-53h23" id="bD"/><g id="A"><use transform="matrix(0.05,0,0,0.05,0,0)" xlink:href="#aM"/><use transform="matrix(0.05,0,0,0.05,5,0)" xlink:href="#bB"/><use transform="matrix(0.05,0,0,0.05,15,0)" xlink:href="#bC"/><use transform="matrix(0.05,0,0,0.05,20,0)" xlink:href="#bC"/><use transform="matrix(0.05,0,0,0.05,25,0)" xlink:href="#bD"/><use transform="matrix(0.05,0,0,0.05,32,0)" xlink:href="#aO"/></g><path d="M115-194c53 0 69 39 70 98 0 66-23 100-70 100C84 3 66-7 56-30L54 0H23l1-261h32v101c10-23 28-34 59-34zm-8 174c40 0 45-34 45-75 0-40-5-75-45-74-42 0-51 32-51 76 0 43 10 73 51 73" id="bE"/><path d="M140-251c81 0 123 46 123 126C263-46 219 4 140 4 59 4 17-45 17-125s42-126 123-126zm0 227c63 0 89-41 89-101s-29-99-89-99c-61 0-89 39-89 99S79-25 140-24" id="bF"/><g id="B"><use transform="matrix(0.05,0,0,0.05,0,0)" xlink:href="#aP"/><use transform="matrix(0.05,0,0,0.05,5.95,0)" xlink:href="#aX"/><use transform="matrix(0.05,0,0,0.05,15.949999999999998,0)" xlink:href="#bg"/><use transform="matrix(0.05,0,0,0.05,20.95,0)" xlink:href="#ar"/><use transform="matrix(0.05,0,0,0.05,29.950000000000003,0)" xlink:href="#au"/><use transform="matrix(0.05,0,0,0.05,34.95,0)" xlink:href="#ar"/><use transform="matrix(0.05,0,0,0.05,43.95,0)" xlink:href="#bA"/><use transform="matrix(0.05,0,0,0.05,53.95,0)" xlink:href="#bE"/><use transform="matrix(0.05,0,0,0.05,63.95,0)" xlink:href="#bj"/><use transform="matrix(0.05,0,0,0.05,76.9,0)" xlink:href="#ay"/><use transform="matrix(0.05,0,0,0.05,80.85000000000001,0)" xlink:href="#at"/><use transform="matrix(0.05,0,0,0.05,90.85000000000001,0)" xlink:href="#ar"/><use transform="matrix(0.05,0,0,0.05,99.85000000000001,0)" xlink:href="#ar"/><use transform="matrix(0.05,0,0,0.05,108.85000000000001,0)" xlink:href="#bF"/><use transform="matrix(0.05,0,0,0.05,122.85000000000001,0)" xlink:href="#bg"/></g><g id="C"><use transform="matrix(0.05,0,0,0.05,0,0)" xlink:href="#aK"/><use transform="matrix(0.05,0,0,0.05,10,0)" xlink:href="#at"/><use transform="matrix(0.05,0,0,0.05,20,0)" xlink:href="#ar"/></g><g id="D"><use transform="matrix(0.05,0,0,0.05,0,0)" xlink:href="#ar"/><use transform="matrix(0.05,0,0,0.05,9,0)" xlink:href="#bA"/><use transform="matrix(0.05,0,0,0.05,19,0)" xlink:href="#aP"/><use transform="matrix(0.05,0,0,0.05,24.95,0)" xlink:href="#bx"/><use transform="matrix(0.05,0,0,0.05,33.95,0)" xlink:href="#aJ"/><use transform="matrix(0.05,0,0,0.05,43.95,0)" xlink:href="#bh"/></g><g id="E"><use transform="matrix(0.05,0,0,0.05,0,0)" xlink:href="#ar"/><use transform="matrix(0.05,0,0,0.05,9,0)" xlink:href="#aI"/><use transform="matrix(0.05,0,0,0.05,14,0)" xlink:href="#at"/><use transform="matrix(0.05,0,0,0.05,24,0)" xlink:href="#aI"/><use transform="matrix(0.05,0,0,0.05,29,0)" xlink:href="#bA"/><use transform="matrix(0.05,0,0,0.05,39,0)" xlink:href="#ar"/></g><g id="F"><use transform="matrix(0.05,0,0,0.05,0,0)" xlink:href="#av"/><use transform="matrix(0.05,0,0,0.05,12,0)" xlink:href="#aJ"/><use transform="matrix(0.05,0,0,0.05,22,0)" xlink:href="#az"/><use transform="matrix(0.05,0,0,0.05,25.950000000000003,0)" xlink:href="#ar"/><use transform="matrix(0.05,0,0,0.05,34.95,0)" xlink:href="#aw"/><use transform="matrix(0.05,0,0,0.05,49.900000000000006,0)" xlink:href="#az"/><use transform="matrix(0.05,0,0,0.05,53.85,0)" xlink:href="#bk"/></g><g id="G"><use transform="matrix(0.05,0,0,0.05,0,0)" xlink:href="#av"/><use transform="matrix(0.05,0,0,0.05,12,0)" xlink:href="#at"/><use transform="matrix(0.05,0,0,0.05,22,0)" xlink:href="#aw"/><use transform="matrix(0.05,0,0,0.05,36.95,0)" xlink:href="#ax"/><use transform="matrix(0.05,0,0,0.05,46.95,0)" xlink:href="#ay"/><use transform="matrix(0.05,0,0,0.05,50.900000000000006,0)" xlink:href="#az"/><use transform="matrix(0.05,0,0,0.05,54.85,0)" xlink:href="#aA"/><use transform="matrix(0.05,0,0,0.05,64.85000000000001,0)" xlink:href="#aB"/></g><path d="M240 0l2-218c-23 76-54 145-80 218h-23L58-218 59 0H30v-248h44l77 211c21-75 51-140 76-211h43V0h-30" id="bG"/><g id="H"><use transform="matrix(0.05,0,0,0.05,0,0)" xlink:href="#bG"/><use transform="matrix(0.05,0,0,0.05,14.950000000000001,0)" xlink:href="#aJ"/><use transform="matrix(0.05,0,0,0.05,24.950000000000003,0)" xlink:href="#aI"/><use transform="matrix(0.05,0,0,0.05,29.950000000000003,0)" xlink:href="#aK"/><use transform="matrix(0.05,0,0,0.05,39.95,0)" xlink:href="#as"/><use transform="matrix(0.05,0,0,0.05,49.95,0)" xlink:href="#aX"/></g><path d="M160-131c35 5 61 23 61 61C221 17 115-2 30 0v-248c76 3 177-17 177 60 0 33-19 50-47 57zm-97-11c50-1 110 9 110-42 0-47-63-36-110-37v79zm0 115c55-2 124 14 124-45 0-56-70-42-124-44v89" id="bH"/><path d="M63-220v92h138v28H63V0H30v-248h175v28H63" id="bI"/><g id="I"><use transform="matrix(0.05,0,0,0.05,0,0)" xlink:href="#bH"/><use transform="matrix(0.05,0,0,0.05,12,0)" xlink:href="#bI"/><use transform="matrix(0.05,0,0,0.05,22.950000000000003,0)" xlink:href="#bF"/></g><g id="J"><use transform="matrix(0.05,0,0,0.05,0,0)" xlink:href="#bp"/><use transform="matrix(0.05,0,0,0.05,12.950000000000001,0)" xlink:href="#az"/><use transform="matrix(0.05,0,0,0.05,16.900000000000002,0)" xlink:href="#aw"/><use transform="matrix(0.05,0,0,0.05,31.85,0)" xlink:href="#aJ"/><use transform="matrix(0.05,0,0,0.05,41.85,0)" xlink:href="#aA"/><use transform="matrix(0.05,0,0,0.05,51.85,0)" xlink:href="#ar"/><use transform="matrix(0.05,0,0,0.05,60.85,0)" xlink:href="#az"/><use transform="matrix(0.05,0,0,0.05,64.8,0)" xlink:href="#as"/><use transform="matrix(0.05,0,0,0.05,74.8,0)" xlink:href="#aA"/><use transform="matrix(0.05,0,0,0.05,84.8,0)" xlink:href="#at"/><use transform="matrix(0.05,0,0,0.05,94.8,0)" xlink:href="#ay"/><use transform="matrix(0.05,0,0,0.05,98.75,0)" xlink:href="#az"/><use transform="matrix(0.05,0,0,0.05,102.7,0)" xlink:href="#aI"/><use transform="matrix(0.05,0,0,0.05,107.7,0)" xlink:href="#bh"/></g><g id="K"><use transform="matrix(0.05,0,0,0.05,0,0)" xlink:href="#aw"/><use transform="matrix(0.05,0,0,0.05,14.950000000000001,0)" xlink:href="#aJ"/><use transform="matrix(0.05,0,0,0.05,24.950000000000003,0)" xlink:href="#aI"/><use transform="matrix(0.05,0,0,0.05,29.950000000000003,0)" xlink:href="#aK"/><use transform="matrix(0.05,0,0,0.05,39.95,0)" xlink:href="#as"/><use transform="matrix(0.05,0,0,0.05,49.95,0)" xlink:href="#aX"/></g><g id="L"><use transform="matrix(0.05,0,0,0.05,0,0)" xlink:href="#bG"/><use transform="matrix(0.05,0,0,0.05,14.950000000000001,0)" xlink:href="#az"/><use transform="matrix(0.05,0,0,0.05,18.900000000000002,0)" xlink:href="#aA"/><use transform="matrix(0.05,0,0,0.05,28.900000000000002,0)" xlink:href="#az"/><use transform="matrix(0.05,0,0,0.05,32.85,0)" xlink:href="#aA"/><use transform="matrix(0.05,0,0,0.05,42.85,0)" xlink:href="#aB"/></g><g id="M"><use transform="matrix(0.05,0,0,0.05,0,0)" xlink:href="#av"/><use transform="matrix(0.05,0,0,0.05,12,0)" xlink:href="#bA"/><use transform="matrix(0.05,0,0,0.05,22,0)" xlink:href="#aP"/><use transform="matrix(0.05,0,0,0.05,27.950000000000003,0)" xlink:href="#bx"/><use transform="matrix(0.05,0,0,0.05,36.95,0)" xlink:href="#aJ"/><use transform="matrix(0.05,0,0,0.05,46.95,0)" xlink:href="#bh"/></g><g id="N"><use transform="matrix(0.05,0,0,0.05,0,0)" xlink:href="#av"/><use transform="matrix(0.05,0,0,0.05,12,0)" xlink:href="#aI"/><use transform="matrix(0.05,0,0,0.05,17,0)" xlink:href="#at"/><use transform="matrix(0.05,0,0,0.05,27,0)" xlink:href="#aI"/><use transform="matrix(0.05,0,0,0.05,32,0)" xlink:href="#bA"/><use transform="matrix(0.05,0,0,0.05,42,0)" xlink:href="#ar"/></g><g id="O"><use transform="matrix(0.05,0,0,0.05,0,0)" xlink:href="#ar"/><use transform="matrix(0.05,0,0,0.05,9,0)" xlink:href="#ax"/><use transform="matrix(0.05,0,0,0.05,19,0)" xlink:href="#at"/><use transform="matrix(0.05,0,0,0.05,29,0)" xlink:href="#aI"/><use transform="matrix(0.05,0,0,0.05,34,0)" xlink:href="#az"/><use transform="matrix(0.05,0,0,0.05,37.95,0)" xlink:href="#at"/><use transform="matrix(0.05,0,0,0.05,47.95,0)" xlink:href="#ay"/></g><g id="P"><use transform="matrix(0.05,0,0,0.05,0,0)" xlink:href="#aX"/><use transform="matrix(0.05,0,0,0.05,10,0)" xlink:href="#az"/><use transform="matrix(0.05,0,0,0.05,13.949999999999998,0)" xlink:href="#aw"/><use transform="matrix(0.05,0,0,0.05,28.899999999999995,0)" xlink:href="#aJ"/><use transform="matrix(0.05,0,0,0.05,38.9,0)" xlink:href="#aA"/><use transform="matrix(0.05,0,0,0.05,48.9,0)" xlink:href="#ar"/><use transform="matrix(0.05,0,0,0.05,57.900000000000006,0)" xlink:href="#az"/><use transform="matrix(0.05,0,0,0.05,61.85,0)" xlink:href="#as"/><use transform="matrix(0.05,0,0,0.05,71.85,0)" xlink:href="#aA"/><use transform="matrix(0.05,0,0,0.05,81.85,0)" xlink:href="#at"/><use transform="matrix(0.05,0,0,0.05,91.85,0)" xlink:href="#ay"/><use transform="matrix(0.05,0,0,0.05,95.8,0)" xlink:href="#az"/><use transform="matrix(0.05,0,0,0.05,99.75,0)" xlink:href="#aI"/><use transform="matrix(0.05,0,0,0.05,104.75,0)" xlink:href="#bh"/></g><g id="Q"><use transform="matrix(0.05,0,0,0.05,0,0)" xlink:href="#aB"/><use transform="matrix(0.05,0,0,0.05,10,0)" xlink:href="#aJ"/><use transform="matrix(0.05,0,0,0.05,20,0)" xlink:href="#as"/><use transform="matrix(0.05,0,0,0.05,30,0)" xlink:href="#au"/></g><g id="R"><use transform="matrix(0.05,0,0,0.05,0,0)" xlink:href="#aK"/><use transform="matrix(0.05,0,0,0.05,10,0)" xlink:href="#at"/><use transform="matrix(0.05,0,0,0.05,20,0)" xlink:href="#ar"/><use transform="matrix(0.05,0,0,0.05,29,0)" xlink:href="#bu"/><use transform="matrix(0.05,0,0,0.05,43,0)" xlink:href="#aJ"/><use transform="matrix(0.05,0,0,0.05,53,0)" xlink:href="#as"/><use transform="matrix(0.05,0,0,0.05,63,0)" xlink:href="#aw"/><use transform="matrix(0.05,0,0,0.05,77.95,0)" xlink:href="#aJ"/><use transform="matrix(0.05,0,0,0.05,87.95,0)" xlink:href="#aI"/><use transform="matrix(0.05,0,0,0.05,92.95,0)" xlink:href="#aP"/><use transform="matrix(0.05,0,0,0.05,98.9,0)" xlink:href="#bh"/></g><g id="S"><use transform="matrix(0.05,0,0,0.05,0,0)" xlink:href="#bu"/><use transform="matrix(0.05,0,0,0.05,14,0)" xlink:href="#aJ"/><use transform="matrix(0.05,0,0,0.05,24,0)" xlink:href="#as"/><use transform="matrix(0.05,0,0,0.05,34,0)" xlink:href="#aw"/><use transform="matrix(0.05,0,0,0.05,48.95,0)" xlink:href="#aJ"/><use transform="matrix(0.05,0,0,0.05,58.95,0)" xlink:href="#aI"/><use transform="matrix(0.05,0,0,0.05,63.95,0)" xlink:href="#aP"/><use transform="matrix(0.05,0,0,0.05,69.9,0)" xlink:href="#bh"/></g><path d="M30-248c87 1 191-15 191 75 0 78-77 80-158 76V0H30v-248zm33 125c57 0 124 11 124-50 0-59-68-47-124-48v98" id="bJ"/><path d="M33 0v-248h34V0H33" id="bK"/><g id="T"><use transform="matrix(0.05,0,0,0.05,0,0)" xlink:href="#bJ"/><use transform="matrix(0.05,0,0,0.05,12,0)" xlink:href="#aP"/><use transform="matrix(0.05,0,0,0.05,17.95,0)" xlink:href="#as"/><use transform="matrix(0.05,0,0,0.05,27.950000000000003,0)" xlink:href="#ax"/><use transform="matrix(0.05,0,0,0.05,37.95,0)" xlink:href="#aJ"/><use transform="matrix(0.05,0,0,0.05,47.95,0)" xlink:href="#aP"/><use transform="matrix(0.05,0,0,0.05,53.900000000000006,0)" xlink:href="#bK"/><use transform="matrix(0.05,0,0,0.05,58.900000000000006,0)" xlink:href="#aA"/><use transform="matrix(0.05,0,0,0.05,68.9,0)" xlink:href="#aI"/><use transform="matrix(0.05,0,0,0.05,73.9,0)" xlink:href="#aJ"/><use transform="matrix(0.05,0,0,0.05,83.9,0)" xlink:href="#aP"/><use transform="matrix(0.05,0,0,0.05,89.85000000000001,0)" xlink:href="#bx"/><use transform="matrix(0.05,0,0,0.05,98.85000000000001,0)" xlink:href="#at"/><use transform="matrix(0.05,0,0,0.05,108.85000000000001,0)" xlink:href="#ay"/></g><g id="U"><use transform="matrix(0.05,0,0,0.05,0,0)" xlink:href="#aX"/><use transform="matrix(0.05,0,0,0.05,10,0)" xlink:href="#bk"/><use transform="matrix(0.05,0,0,0.05,19,0)" xlink:href="#aI"/><use transform="matrix(0.05,0,0,0.05,24,0)" xlink:href="#au"/><use transform="matrix(0.05,0,0,0.05,29,0)" xlink:href="#ar"/><use transform="matrix(0.05,0,0,0.05,38,0)" xlink:href="#as"/><use transform="matrix(0.05,0,0,0.05,48,0)" xlink:href="#bA"/><use transform="matrix(0.05,0,0,0.05,58,0)" xlink:href="#aP"/><use transform="matrix(0.05,0,0,0.05,63.95,0)" xlink:href="#bk"/><use transform="matrix(0.05,0,0,0.05,72.95,0)" xlink:href="#aJ"/></g><g id="V"><use transform="matrix(0.05,0,0,0.05,0,0)" xlink:href="#bg"/><use transform="matrix(0.05,0,0,0.05,5,0)" xlink:href="#as"/><use transform="matrix(0.05,0,0,0.05,15,0)" xlink:href="#at"/><use transform="matrix(0.05,0,0,0.05,25,0)" xlink:href="#bg"/><use transform="matrix(0.05,0,0,0.05,30,0)" xlink:href="#au"/></g><g id="W"><use transform="matrix(0.05,0,0,0.05,0,0)" xlink:href="#bp"/><use transform="matrix(0.05,0,0,0.05,12.950000000000001,0)" xlink:href="#as"/><use transform="matrix(0.05,0,0,0.05,22.950000000000003,0)" xlink:href="#bk"/><use transform="matrix(0.05,0,0,0.05,31.950000000000003,0)" xlink:href="#bA"/><use transform="matrix(0.05,0,0,0.05,41.95,0)" xlink:href="#aw"/><use transform="matrix(0.05,0,0,0.05,56.900000000000006,0)" xlink:href="#aJ"/><use transform="matrix(0.05,0,0,0.05,66.9,0)" xlink:href="#aA"/><use transform="matrix(0.05,0,0,0.05,76.9,0)" xlink:href="#aI"/></g><path fill="#fff" d="M30-248c87 1 191-15 191 75 0 78-77 80-158 76V0H30v-248zm33 125c57 0 124 11 124-50 0-59-68-47-124-48v98" id="bL"/><path fill="#fff" d="M210-169c-67 3-38 105-44 169h-31v-121c0-29-5-50-35-48C34-165 62-65 56 0H25l-1-190h30c1 10-1 24 2 32 10-44 99-50 107 0 11-21 27-35 58-36 85-2 47 119 55 194h-31v-121c0-29-5-49-35-48" id="bM"/><path fill="#fff" d="M24-231v-30h32v30H24zM24 0v-190h32V0H24" id="bN"/><g id="X"><use transform="matrix(0.05,0,0,0.05,0,0)" xlink:href="#bL"/><use transform="matrix(0.05,0,0,0.05,12,0)" xlink:href="#aG"/><use transform="matrix(0.05,0,0,0.05,22,0)" xlink:href="#aE"/><use transform="matrix(0.05,0,0,0.05,27.950000000000003,0)" xlink:href="#bM"/><use transform="matrix(0.05,0,0,0.05,42.9,0)" xlink:href="#bN"/><use transform="matrix(0.05,0,0,0.05,46.85,0)" xlink:href="#be"/></g><g id="Y"><use transform="matrix(0.05,0,0,0.05,0,0)" xlink:href="#ax"/><use transform="matrix(0.05,0,0,0.05,10,0)" xlink:href="#aJ"/><use transform="matrix(0.05,0,0,0.05,20,0)" xlink:href="#aP"/><use transform="matrix(0.05,0,0,0.05,25.950000000000003,0)" xlink:href="#aw"/><use transform="matrix(0.05,0,0,0.05,40.9,0)" xlink:href="#az"/><use transform="matrix(0.05,0,0,0.05,44.85,0)" xlink:href="#aI"/></g><g id="Z"><use transform="matrix(0.05,0,0,0.05,0,0)" xlink:href="#by"/><use transform="matrix(0.05,0,0,0.05,12,0)" xlink:href="#bk"/><use transform="matrix(0.05,0,0,0.05,21,0)" xlink:href="#bk"/><use transform="matrix(0.05,0,0,0.05,30,0)" xlink:href="#aJ"/><use transform="matrix(0.05,0,0,0.05,40,0)" xlink:href="#ar"/><use transform="matrix(0.05,0,0,0.05,49,0)" xlink:href="#ar"/></g><g id="aa"><use transform="matrix(0.05,0,0,0.05,0,0)" xlink:href="#bz"/><use transform="matrix(0.05,0,0,0.05,12.950000000000001,0)" xlink:href="#az"/><use transform="matrix(0.05,0,0,0.05,16.900000000000002,0)" xlink:href="#aB"/><use transform="matrix(0.05,0,0,0.05,26.900000000000002,0)" xlink:href="#aK"/><use transform="matrix(0.05,0,0,0.05,36.900000000000006,0)" xlink:href="#aI"/><use transform="matrix(0.05,0,0,0.05,41.900000000000006,0)" xlink:href="#ar"/></g><g id="ab"><use transform="matrix(0.05,0,0,0.05,0,0)" xlink:href="#at"/><use transform="matrix(0.05,0,0,0.05,10,0)" xlink:href="#bk"/><use transform="matrix(0.05,0,0,0.05,19,0)" xlink:href="#bk"/><use transform="matrix(0.05,0,0,0.05,28,0)" xlink:href="#aJ"/><use transform="matrix(0.05,0,0,0.05,38,0)" xlink:href="#ar"/><use transform="matrix(0.05,0,0,0.05,47,0)" xlink:href="#ar"/></g><g id="ac"><use transform="matrix(0.05,0,0,0.05,0,0)" xlink:href="#aP"/><use transform="matrix(0.05,0,0,0.05,5.95,0)" xlink:href="#az"/><use transform="matrix(0.05,0,0,0.05,9.9,0)" xlink:href="#aB"/><use transform="matrix(0.05,0,0,0.05,19.9,0)" xlink:href="#aK"/><use transform="matrix(0.05,0,0,0.05,29.899999999999995,0)" xlink:href="#aI"/><use transform="matrix(0.05,0,0,0.05,34.9,0)" xlink:href="#ar"/></g><g id="ad"><use transform="matrix(0.05,0,0,0.05,0,0)" xlink:href="#bI"/><use transform="matrix(0.05,0,0,0.05,10.950000000000001,0)" xlink:href="#aJ"/><use transform="matrix(0.05,0,0,0.05,20.950000000000003,0)" xlink:href="#at"/><use transform="matrix(0.05,0,0,0.05,30.950000000000003,0)" xlink:href="#aI"/><use transform="matrix(0.05,0,0,0.05,35.95,0)" xlink:href="#bA"/><use transform="matrix(0.05,0,0,0.05,45.95,0)" xlink:href="#aP"/><use transform="matrix(0.05,0,0,0.05,51.900000000000006,0)" xlink:href="#aJ"/><use transform="matrix(0.05,0,0,0.05,61.900000000000006,0)" xlink:href="#bF"/><use transform="matrix(0.05,0,0,0.05,75.9,0)" xlink:href="#bg"/><use transform="matrix(0.05,0,0,0.05,80.9,0)" xlink:href="#bK"/><use transform="matrix(0.05,0,0,0.05,85.9,0)" xlink:href="#aA"/><use transform="matrix(0.05,0,0,0.05,95.9,0)" xlink:href="#aI"/><use transform="matrix(0.05,0,0,0.05,100.9,0)" xlink:href="#aJ"/><use transform="matrix(0.05,0,0,0.05,110.9,0)" xlink:href="#aP"/><use transform="matrix(0.05,0,0,0.05,116.85000000000001,0)" xlink:href="#aJ"/><use transform="matrix(0.05,0,0,0.05,126.85000000000001,0)" xlink:href="#ar"/><use transform="matrix(0.05,0,0,0.05,135.85000000000002,0)" xlink:href="#aI"/></g><g id="ae"><use transform="matrix(0.05,0,0,0.05,0,0)" xlink:href="#aK"/><use transform="matrix(0.05,0,0,0.05,10,0)" xlink:href="#at"/><use transform="matrix(0.05,0,0,0.05,20,0)" xlink:href="#ar"/><use transform="matrix(0.05,0,0,0.05,29,0)" xlink:href="#bI"/><use transform="matrix(0.05,0,0,0.05,39.95,0)" xlink:href="#aJ"/><use transform="matrix(0.05,0,0,0.05,49.95,0)" xlink:href="#at"/><use transform="matrix(0.05,0,0,0.05,59.95,0)" xlink:href="#aI"/><use transform="matrix(0.05,0,0,0.05,64.95,0)" xlink:href="#bA"/><use transform="matrix(0.05,0,0,0.05,74.95,0)" xlink:href="#aP"/><use transform="matrix(0.05,0,0,0.05,80.9,0)" xlink:href="#aJ"/><use transform="matrix(0.05,0,0,0.05,90.9,0)" xlink:href="#bF"/><use transform="matrix(0.05,0,0,0.05,104.9,0)" xlink:href="#bg"/><use transform="matrix(0.05,0,0,0.05,109.9,0)" xlink:href="#bK"/><use transform="matrix(0.05,0,0,0.05,114.9,0)" xlink:href="#aA"/><use transform="matrix(0.05,0,0,0.05,124.9,0)" xlink:href="#aI"/><use transform="matrix(0.05,0,0,0.05,129.9,0)" xlink:href="#aJ"/><use transform="matrix(0.05,0,0,0.05,139.9,0)" xlink:href="#aP"/><use transform="matrix(0.05,0,0,0.05,145.85,0)" xlink:href="#aJ"/><use transform="matrix(0.05,0,0,0.05,155.85,0)" xlink:href="#ar"/><use transform="matrix(0.05,0,0,0.05,164.85,0)" xlink:href="#aI"/></g><g id="af"><use transform="matrix(0.05,0,0,0.05,0,0)" xlink:href="#aW"/><use transform="matrix(0.05,0,0,0.05,9,0)" xlink:href="#ar"/><use transform="matrix(0.05,0,0,0.05,18,0)" xlink:href="#aX"/><use transform="matrix(0.05,0,0,0.05,28,0)" xlink:href="#au"/><use transform="matrix(0.05,0,0,0.05,33,0)" xlink:href="#ar"/><use transform="matrix(0.05,0,0,0.05,42,0)" xlink:href="#aI"/><use transform="matrix(0.05,0,0,0.05,47,0)" xlink:href="#aP"/><use transform="matrix(0.05,0,0,0.05,52.95,0)" xlink:href="#az"/><use transform="matrix(0.05,0,0,0.05,56.900000000000006,0)" xlink:href="#aA"/><use transform="matrix(0.05,0,0,0.05,66.9,0)" xlink:href="#aB"/></g><g id="ag"><use transform="matrix(0.05,0,0,0.05,0,0)" xlink:href="#aX"/><use transform="matrix(0.05,0,0,0.05,10,0)" xlink:href="#bk"/><use transform="matrix(0.05,0,0,0.05,19,0)" xlink:href="#aI"/><use transform="matrix(0.05,0,0,0.05,24,0)" xlink:href="#au"/><use transform="matrix(0.05,0,0,0.05,29,0)" xlink:href="#aI"/><use transform="matrix(0.05,0,0,0.05,34,0)" xlink:href="#az"/><use transform="matrix(0.05,0,0,0.05,37.95,0)" xlink:href="#aI"/><use transform="matrix(0.05,0,0,0.05,42.95,0)" xlink:href="#ay"/><use transform="matrix(0.05,0,0,0.05,46.900000000000006,0)" xlink:href="#aJ"/></g><g id="ah"><use transform="matrix(0.05,0,0,0.05,0,0)" xlink:href="#aM"/><use transform="matrix(0.05,0,0,0.05,5,0)" xlink:href="#aN"/><use transform="matrix(0.05,0,0,0.05,15,0)" xlink:href="#aO"/></g><g id="ai"><use transform="matrix(0.05,0,0,0.05,0,0)" xlink:href="#aX"/><use transform="matrix(0.05,0,0,0.05,10,0)" xlink:href="#bk"/><use transform="matrix(0.05,0,0,0.05,19,0)" xlink:href="#aI"/><use transform="matrix(0.05,0,0,0.05,24,0)" xlink:href="#au"/><use transform="matrix(0.05,0,0,0.05,29,0)" xlink:href="#aX"/><use transform="matrix(0.05,0,0,0.05,39,0)" xlink:href="#aJ"/><use transform="matrix(0.05,0,0,0.05,49,0)" xlink:href="#ar"/><use transform="matrix(0.05,0,0,0.05,58,0)" xlink:href="#bk"/><use transform="matrix(0.05,0,0,0.05,67,0)" xlink:href="#aP"/><use transform="matrix(0.05,0,0,0.05,72.95,0)" xlink:href="#az"/><use transform="matrix(0.05,0,0,0.05,76.9,0)" xlink:href="#ax"/><use transform="matrix(0.05,0,0,0.05,86.9,0)" xlink:href="#aI"/><use transform="matrix(0.05,0,0,0.05,91.9,0)" xlink:href="#az"/><use transform="matrix(0.05,0,0,0.05,95.85000000000001,0)" xlink:href="#as"/><use transform="matrix(0.05,0,0,0.05,105.85000000000001,0)" xlink:href="#aA"/></g><g id="aj"><use transform="matrix(0.05,0,0,0.05,0,0)" xlink:href="#aX"/><use transform="matrix(0.05,0,0,0.05,10,0)" xlink:href="#bk"/><use transform="matrix(0.05,0,0,0.05,19,0)" xlink:href="#aI"/><use transform="matrix(0.05,0,0,0.05,24,0)" xlink:href="#au"/><use transform="matrix(0.05,0,0,0.05,29,0)" xlink:href="#az"/><use transform="matrix(0.05,0,0,0.05,32.95,0)" xlink:href="#aX"/><use transform="matrix(0.05,0,0,0.05,42.95,0)" xlink:href="#aJ"/><use transform="matrix(0.05,0,0,0.05,52.95,0)" xlink:href="#aA"/><use transform="matrix(0.05,0,0,0.05,62.95,0)" xlink:href="#aI"/><use transform="matrix(0.05,0,0,0.05,67.95,0)" xlink:href="#az"/><use transform="matrix(0.05,0,0,0.05,71.9,0)" xlink:href="#bg"/><use transform="matrix(0.05,0,0,0.05,76.9,0)" xlink:href="#az"/><use transform="matrix(0.05,0,0,0.05,80.85000000000001,0)" xlink:href="#aJ"/><use transform="matrix(0.05,0,0,0.05,90.85000000000001,0)" xlink:href="#aP"/></g><g id="ak"><use transform="matrix(0.05,0,0,0.05,0,0)" xlink:href="#aW"/><use transform="matrix(0.05,0,0,0.05,9,0)" xlink:href="#ar"/><use transform="matrix(0.05,0,0,0.05,18,0)" xlink:href="#aX"/><use transform="matrix(0.05,0,0,0.05,28,0)" xlink:href="#au"/><use transform="matrix(0.05,0,0,0.05,33,0)" xlink:href="#aX"/><use transform="matrix(0.05,0,0,0.05,43,0)" xlink:href="#at"/><use transform="matrix(0.05,0,0,0.05,53,0)" xlink:href="#aI"/><use transform="matrix(0.05,0,0,0.05,58,0)" xlink:href="#aJ"/></g><g id="al"><use transform="matrix(0.05,0,0,0.05,0,0)" xlink:href="#aX"/><use transform="matrix(0.05,0,0,0.05,10,0)" xlink:href="#bk"/><use transform="matrix(0.05,0,0,0.05,19,0)" xlink:href="#aI"/><use transform="matrix(0.05,0,0,0.05,24,0)" xlink:href="#au"/><use transform="matrix(0.05,0,0,0.05,29,0)" xlink:href="#bk"/><use transform="matrix(0.05,0,0,0.05,38,0)" xlink:href="#aP"/><use transform="matrix(0.05,0,0,0.05,43.95,0)" xlink:href="#aJ"/><use transform="matrix(0.05,0,0,0.05,53.95,0)" xlink:href="#at"/><use transform="matrix(0.05,0,0,0.05,63.95,0)" xlink:href="#aI"/><use transform="matrix(0.05,0,0,0.05,68.95,0)" xlink:href="#aJ"/><use transform="matrix(0.05,0,0,0.05,78.95,0)" xlink:href="#aX"/></g><g id="am"><use transform="matrix(0.05,0,0,0.05,0,0)" xlink:href="#aX"/><use transform="matrix(0.05,0,0,0.05,10,0)" xlink:href="#bk"/><use transform="matrix(0.05,0,0,0.05,19,0)" xlink:href="#aI"/><use transform="matrix(0.05,0,0,0.05,24,0)" xlink:href="#au"/><use transform="matrix(0.05,0,0,0.05,29,0)" xlink:href="#az"/><use transform="matrix(0.05,0,0,0.05,32.95,0)" xlink:href="#ar"/><use transform="matrix(0.05,0,0,0.05,41.95,0)" xlink:href="#ar"/><use transform="matrix(0.05,0,0,0.05,50.95,0)" xlink:href="#bA"/><use transform="matrix(0.05,0,0,0.05,60.95,0)" xlink:href="#aJ"/><use transform="matrix(0.05,0,0,0.05,70.95,0)" xlink:href="#aX"/></g><g id="an"><use transform="matrix(0.05,0,0,0.05,0,0)" xlink:href="#aX"/><use transform="matrix(0.05,0,0,0.05,10,0)" xlink:href="#bk"/><use transform="matrix(0.05,0,0,0.05,19,0)" xlink:href="#aI"/><use transform="matrix(0.05,0,0,0.05,24,0)" xlink:href="#au"/><use transform="matrix(0.05,0,0,0.05,29,0)" xlink:href="#aw"/><use transform="matrix(0.05,0,0,0.05,43.95,0)" xlink:href="#as"/><use transform="matrix(0.05,0,0,0.05,53.95,0)" xlink:href="#aX"/><use transform="matrix(0.05,0,0,0.05,63.95,0)" xlink:href="#az"/><use transform="matrix(0.05,0,0,0.05,67.9,0)" xlink:href="#bg"/><use transform="matrix(0.05,0,0,0.05,72.9,0)" xlink:href="#az"/><use transform="matrix(0.05,0,0,0.05,76.85000000000001,0)" xlink:href="#aJ"/><use transform="matrix(0.05,0,0,0.05,86.85000000000001,0)" xlink:href="#aX"/></g><path d="M30 0v-248h33v221h125V0H30" id="bO"/><g id="ao"><use transform="matrix(0.05,0,0,0.05,0,0)" xlink:href="#bO"/><use transform="matrix(0.05,0,0,0.05,10,0)" xlink:href="#az"/><use transform="matrix(0.05,0,0,0.05,13.949999999999998,0)" xlink:href="#aI"/><use transform="matrix(0.05,0,0,0.05,18.95,0)" xlink:href="#aJ"/><use transform="matrix(0.05,0,0,0.05,28.950000000000003,0)" xlink:href="#aP"/><use transform="matrix(0.05,0,0,0.05,34.9,0)" xlink:href="#at"/><use transform="matrix(0.05,0,0,0.05,44.9,0)" xlink:href="#ay"/></g><g id="ap"><use transform="matrix(0.05,0,0,0.05,0,0)" xlink:href="#bO"/><use transform="matrix(0.05,0,0,0.05,10,0)" xlink:href="#az"/><use transform="matrix(0.05,0,0,0.05,13.949999999999998,0)" xlink:href="#aA"/><use transform="matrix(0.05,0,0,0.05,23.95,0)" xlink:href="#aJ"/><use transform="matrix(0.05,0,0,0.05,33.95,0)" xlink:href="#ar"/></g><g id="aq"><use transform="matrix(0.05,0,0,0.05,0,0)" xlink:href="#ay"/><use transform="matrix(0.05,0,0,0.05,3.95,0)" xlink:href="#az"/><use transform="matrix(0.05,0,0,0.05,7.9,0)" xlink:href="#aA"/><use transform="matrix(0.05,0,0,0.05,17.9,0)" xlink:href="#aJ"/><use transform="matrix(0.05,0,0,0.05,27.899999999999995,0)" xlink:href="#ar"/></g></defs></g></svg>